<!-- Generator: Adobe Illustrator 19.1.0, SVG Export Plug-In  -->
<svg version="1.1"
	 xmlns="http://www.w3.org/2000/svg" xmlns:xlink="http://www.w3.org/1999/xlink" xmlns:a="http://ns.adobe.com/AdobeSVGViewerExtensions/3.0/"
	 x="0px" y="0px" width="234.5px" height="218.653px" viewBox="0 0 234.5 218.653"
	 style="enable-background:new 0 0 234.5 218.653;" xml:space="preserve">
<style type="text/css">
	.st0{fill:#D1D3D4;}
	.st1{fill:#F1F2F2;}
	.st2{opacity:0.09;}
	.st3{fill:#62269E;}
	.st4{fill:#FFFFFF;}
	.st5{fill:#EA1D76;}
	.st6{fill:#7F3F98;}
	.st7{opacity:0.5;}
	.st8{fill:#939598;}
	.st9{fill:#A7A9AC;}
	.st10{opacity:0.8;}
	.st11{fill:#ADADAD;}
</style>
<defs>
</defs>
<g>
	<g>
		<rect y="140.297" class="st0" width="234.5" height="44.203"/>
	</g>
	<g>
		<rect y="30.811" class="st1" width="234.5" height="107.486"/>
	</g>
	<g class="st2">
		<path class="st3" d="M107.345,138.297V40.966c0-1.566,1.294-2.835,2.889-2.835h109.4c1.596,0,2.889,1.269,2.889,2.835v97.331"/>
	</g>
	<g>
		<path class="st3" d="M234.5,28.797H0V2.835C0,1.269,1.269,0,2.835,0h228.831c1.566,0,2.835,1.269,2.835,2.835V28.797z"/>
	</g>
	<g>
		<path class="st4" d="M11.344,20.981L8.08,11.699h1.326l2.652,8.047h0.025l2.679-8.047h1.287l-3.303,9.282H11.344z"/>
		<path class="st4" d="M20.898,20.552c-0.503,0.381-1.136,0.571-1.898,0.571c-0.537,0-1.003-0.086-1.397-0.26
			c-0.395-0.173-0.726-0.416-0.994-0.728c-0.269-0.312-0.471-0.685-0.604-1.118c-0.135-0.434-0.21-0.905-0.228-1.417
			c0-0.512,0.078-0.979,0.234-1.404c0.155-0.425,0.374-0.793,0.656-1.104c0.281-0.312,0.615-0.555,1.001-0.729
			c0.386-0.173,0.808-0.26,1.268-0.26c0.598,0,1.094,0.123,1.488,0.37s0.711,0.562,0.949,0.942c0.238,0.382,0.402,0.798,0.494,1.248
			c0.091,0.451,0.127,0.88,0.11,1.287h-5.031c-0.009,0.295,0.026,0.574,0.104,0.839c0.077,0.265,0.203,0.498,0.377,0.702
			c0.173,0.203,0.394,0.366,0.663,0.487c0.268,0.121,0.585,0.182,0.948,0.182c0.469,0,0.852-0.108,1.15-0.324
			c0.3-0.217,0.496-0.547,0.592-0.988h1.092C21.726,19.603,21.401,20.17,20.898,20.552z M20.632,16.236
			c-0.1-0.233-0.234-0.436-0.403-0.604s-0.368-0.303-0.598-0.403c-0.229-0.099-0.483-0.149-0.761-0.149
			c-0.286,0-0.544,0.051-0.773,0.149c-0.229,0.101-0.427,0.236-0.592,0.41c-0.164,0.173-0.294,0.375-0.39,0.604
			s-0.151,0.475-0.169,0.734h3.861C20.79,16.717,20.731,16.47,20.632,16.236z"/>
		<path class="st4" d="M27.879,20.552c-0.502,0.381-1.135,0.571-1.897,0.571c-0.538,0-1.003-0.086-1.397-0.26
			c-0.395-0.173-0.727-0.416-0.995-0.728c-0.269-0.312-0.47-0.685-0.604-1.118c-0.134-0.434-0.21-0.905-0.228-1.417
			c0-0.512,0.078-0.979,0.234-1.404s0.375-0.793,0.656-1.104c0.282-0.312,0.615-0.555,1.001-0.729
			c0.386-0.173,0.809-0.26,1.268-0.26c0.599,0,1.095,0.123,1.489,0.37c0.394,0.247,0.71,0.562,0.948,0.942
			c0.238,0.382,0.403,0.798,0.494,1.248c0.091,0.451,0.128,0.88,0.11,1.287h-5.03c-0.009,0.295,0.025,0.574,0.104,0.839
			s0.203,0.498,0.377,0.702c0.174,0.203,0.395,0.366,0.663,0.487s0.585,0.182,0.949,0.182c0.468,0,0.852-0.108,1.15-0.324
			c0.299-0.217,0.496-0.547,0.592-0.988h1.092C28.707,19.603,28.382,20.17,27.879,20.552z M27.613,16.236
			c-0.101-0.233-0.234-0.436-0.403-0.604s-0.368-0.303-0.599-0.403c-0.229-0.099-0.482-0.149-0.76-0.149
			c-0.286,0-0.544,0.051-0.773,0.149c-0.23,0.101-0.428,0.236-0.592,0.41c-0.165,0.173-0.295,0.375-0.39,0.604
			c-0.096,0.229-0.152,0.475-0.169,0.734h3.86C27.77,16.717,27.712,16.47,27.613,16.236z"/>
		<path class="st4" d="M31.103,14.26v1.417h0.026c0.269-0.546,0.598-0.949,0.988-1.209c0.39-0.261,0.884-0.382,1.481-0.364v1.17
			c-0.441,0-0.819,0.061-1.131,0.182c-0.312,0.122-0.563,0.3-0.754,0.533c-0.19,0.234-0.329,0.519-0.416,0.852
			c-0.087,0.334-0.13,0.718-0.13,1.15v2.99h-1.105V14.26H31.103z"/>
		<path class="st4" d="M37.304,14.26v0.975h-1.339v4.173c0,0.13,0.011,0.234,0.032,0.312s0.063,0.139,0.124,0.182
			c0.061,0.044,0.145,0.071,0.253,0.085c0.108,0.013,0.249,0.02,0.423,0.02h0.507v0.975h-0.845c-0.286,0-0.531-0.02-0.734-0.059
			c-0.204-0.039-0.369-0.11-0.494-0.215c-0.126-0.104-0.219-0.251-0.279-0.441s-0.091-0.442-0.091-0.754v-4.277h-1.145V14.26h1.145
			v-2.016h1.104v2.016H37.304z"/>
		<path class="st4" d="M43.05,20.981v-1.066h-0.026c-0.233,0.416-0.533,0.722-0.896,0.917c-0.364,0.195-0.793,0.292-1.287,0.292
			c-0.442,0-0.811-0.058-1.105-0.175s-0.533-0.284-0.715-0.501s-0.31-0.475-0.384-0.773c-0.073-0.299-0.11-0.63-0.11-0.994v-4.42
			h1.105v4.55c0,0.416,0.121,0.745,0.363,0.988c0.243,0.242,0.577,0.363,1.001,0.363c0.339,0,0.631-0.052,0.878-0.155
			c0.247-0.104,0.453-0.252,0.617-0.442c0.165-0.19,0.288-0.414,0.371-0.67c0.082-0.255,0.123-0.534,0.123-0.838V14.26h1.105v6.721
			H43.05z"/>
		<path class="st5" d="M50.785,11.699v3.991h4.888v-3.991h1.235v9.282h-1.235V16.73h-4.888v4.251H49.55v-9.282H50.785z"/>
		<path class="st5" d="M61.009,22.697c-0.125,0.226-0.264,0.41-0.416,0.553c-0.151,0.143-0.318,0.247-0.5,0.312
			c-0.183,0.065-0.398,0.098-0.65,0.098c-0.13,0-0.26-0.009-0.39-0.025c-0.13-0.018-0.256-0.048-0.377-0.092v-1.014
			c0.104,0.034,0.21,0.069,0.318,0.104c0.108,0.034,0.219,0.052,0.331,0.052c0.226,0,0.407-0.052,0.547-0.156
			c0.138-0.104,0.26-0.256,0.363-0.455l0.455-1.131l-2.665-6.682h1.248l1.963,5.499h0.026l1.885-5.499h1.17l-2.925,7.604
			C61.263,22.194,61.135,22.471,61.009,22.697z"/>
		<path class="st5" d="M66.397,14.26v0.91h0.026c0.182-0.373,0.468-0.644,0.857-0.812c0.391-0.17,0.819-0.254,1.287-0.254
			c0.521,0,0.973,0.096,1.358,0.286s0.707,0.448,0.962,0.773c0.256,0.325,0.449,0.7,0.579,1.124c0.13,0.425,0.195,0.876,0.195,1.353
			s-0.063,0.928-0.188,1.352c-0.126,0.425-0.317,0.796-0.572,1.111c-0.256,0.317-0.577,0.566-0.962,0.748
			c-0.386,0.182-0.835,0.272-1.346,0.272c-0.165,0-0.349-0.017-0.553-0.052c-0.203-0.034-0.405-0.091-0.604-0.169
			s-0.388-0.184-0.565-0.318s-0.327-0.301-0.448-0.501h-0.026v3.458h-1.104V14.26H66.397z M70.369,16.645
			c-0.082-0.299-0.208-0.565-0.377-0.799c-0.169-0.234-0.386-0.421-0.65-0.56c-0.264-0.139-0.574-0.208-0.929-0.208
			c-0.373,0-0.689,0.074-0.949,0.222s-0.473,0.34-0.638,0.578c-0.164,0.238-0.283,0.509-0.357,0.812
			c-0.073,0.304-0.11,0.611-0.11,0.923c0,0.33,0.039,0.648,0.117,0.956s0.201,0.578,0.37,0.812c0.169,0.233,0.389,0.422,0.657,0.565
			c0.269,0.143,0.593,0.214,0.975,0.214s0.7-0.073,0.956-0.221c0.255-0.147,0.461-0.342,0.617-0.585
			c0.156-0.242,0.269-0.52,0.338-0.832c0.069-0.312,0.104-0.633,0.104-0.962C70.492,17.249,70.451,16.945,70.369,16.645z"/>
		<path class="st5" d="M77.72,20.552c-0.502,0.381-1.135,0.571-1.897,0.571c-0.538,0-1.003-0.086-1.397-0.26
			c-0.395-0.173-0.727-0.416-0.995-0.728c-0.269-0.312-0.47-0.685-0.604-1.118c-0.134-0.434-0.21-0.905-0.228-1.417
			c0-0.512,0.078-0.979,0.234-1.404s0.375-0.793,0.656-1.104c0.282-0.312,0.615-0.555,1.001-0.729
			c0.386-0.173,0.809-0.26,1.268-0.26c0.599,0,1.095,0.123,1.489,0.37c0.394,0.247,0.71,0.562,0.948,0.942
			c0.238,0.382,0.403,0.798,0.494,1.248c0.091,0.451,0.128,0.88,0.11,1.287h-5.03c-0.009,0.295,0.025,0.574,0.104,0.839
			s0.203,0.498,0.377,0.702c0.174,0.203,0.395,0.366,0.663,0.487s0.585,0.182,0.949,0.182c0.468,0,0.852-0.108,1.15-0.324
			c0.299-0.217,0.496-0.547,0.592-0.988h1.092C78.548,19.603,78.223,20.17,77.72,20.552z M77.454,16.236
			c-0.101-0.233-0.234-0.436-0.403-0.604s-0.368-0.303-0.599-0.403c-0.229-0.099-0.482-0.149-0.76-0.149
			c-0.286,0-0.544,0.051-0.773,0.149c-0.23,0.101-0.428,0.236-0.592,0.41c-0.165,0.173-0.295,0.375-0.39,0.604
			c-0.096,0.229-0.152,0.475-0.169,0.734h3.86C77.611,16.717,77.553,16.47,77.454,16.236z"/>
		<path class="st5" d="M80.944,14.26v1.417h0.025c0.269-0.546,0.599-0.949,0.988-1.209c0.39-0.261,0.884-0.382,1.482-0.364v1.17
			c-0.442,0-0.819,0.061-1.131,0.182c-0.312,0.122-0.563,0.3-0.755,0.533c-0.19,0.234-0.329,0.519-0.416,0.852
			c-0.086,0.334-0.13,0.718-0.13,1.15v2.99h-1.104V14.26H80.944z"/>
		<path class="st5" d="M86.118,20.981l-2.496-6.721h1.235l1.885,5.603h0.026l1.833-5.603h1.156l-2.457,6.721H86.118z"/>
		<path class="st5" d="M90.837,13.051v-1.353h1.105v1.353H90.837z M91.942,14.26v6.721h-1.105V14.26H91.942z"/>
		<path class="st5" d="M94.503,19.479c0.104,0.17,0.24,0.304,0.409,0.403s0.359,0.171,0.572,0.215
			c0.212,0.043,0.431,0.064,0.656,0.064c0.174,0,0.355-0.013,0.546-0.039c0.191-0.025,0.366-0.073,0.527-0.143
			c0.16-0.069,0.292-0.171,0.396-0.306c0.104-0.134,0.155-0.306,0.155-0.514c0-0.286-0.108-0.502-0.324-0.649
			c-0.217-0.147-0.488-0.267-0.812-0.357c-0.325-0.092-0.679-0.174-1.06-0.247c-0.382-0.074-0.735-0.178-1.06-0.312
			c-0.325-0.134-0.597-0.322-0.812-0.565c-0.217-0.242-0.325-0.58-0.325-1.014c0-0.338,0.075-0.629,0.228-0.871
			c0.151-0.242,0.347-0.439,0.585-0.592c0.238-0.151,0.507-0.264,0.806-0.338c0.299-0.073,0.596-0.11,0.891-0.11
			c0.381,0,0.732,0.032,1.053,0.098c0.321,0.064,0.604,0.178,0.852,0.338s0.444,0.377,0.592,0.65c0.147,0.272,0.234,0.612,0.26,1.02
			h-1.104c-0.018-0.216-0.074-0.396-0.169-0.539c-0.096-0.143-0.217-0.258-0.364-0.345c-0.147-0.086-0.311-0.149-0.487-0.188
			c-0.178-0.039-0.357-0.059-0.54-0.059c-0.164,0-0.331,0.014-0.5,0.039c-0.169,0.026-0.323,0.072-0.462,0.137
			c-0.139,0.065-0.251,0.151-0.338,0.26s-0.13,0.25-0.13,0.423c0,0.19,0.067,0.349,0.201,0.475c0.135,0.126,0.306,0.229,0.514,0.312
			c0.208,0.083,0.442,0.152,0.702,0.208c0.26,0.057,0.52,0.115,0.78,0.176c0.277,0.061,0.548,0.135,0.812,0.221
			c0.264,0.087,0.498,0.202,0.702,0.345c0.203,0.144,0.368,0.323,0.493,0.54c0.126,0.216,0.188,0.485,0.188,0.806
			c0,0.407-0.084,0.745-0.253,1.014s-0.391,0.485-0.663,0.65c-0.273,0.165-0.581,0.279-0.923,0.345
			c-0.343,0.064-0.683,0.097-1.021,0.097c-0.373,0-0.729-0.039-1.066-0.116c-0.338-0.078-0.637-0.206-0.896-0.384
			c-0.261-0.178-0.469-0.411-0.624-0.702c-0.156-0.29-0.243-0.644-0.261-1.06h1.105C94.343,19.105,94.399,19.31,94.503,19.479z"/>
		<path class="st5" d="M100.002,16.242c0.139-0.43,0.347-0.802,0.624-1.118s0.619-0.565,1.027-0.747
			c0.407-0.183,0.875-0.273,1.403-0.273c0.537,0,1.008,0.091,1.411,0.273c0.402,0.182,0.743,0.431,1.021,0.747
			s0.485,0.688,0.624,1.118c0.138,0.429,0.208,0.891,0.208,1.385c0,0.493-0.07,0.953-0.208,1.378
			c-0.139,0.425-0.347,0.795-0.624,1.111s-0.618,0.563-1.021,0.741c-0.403,0.177-0.874,0.266-1.411,0.266
			c-0.528,0-0.996-0.089-1.403-0.266c-0.408-0.178-0.75-0.425-1.027-0.741s-0.485-0.687-0.624-1.111s-0.208-0.885-0.208-1.378
			C99.794,17.133,99.863,16.671,100.002,16.242z M101.126,18.712c0.108,0.316,0.258,0.581,0.449,0.793
			c0.19,0.213,0.413,0.375,0.669,0.487c0.256,0.113,0.526,0.169,0.812,0.169s0.557-0.056,0.812-0.169
			c0.256-0.112,0.479-0.274,0.67-0.487c0.19-0.212,0.34-0.477,0.448-0.793s0.163-0.678,0.163-1.085c0-0.408-0.055-0.77-0.163-1.086
			s-0.258-0.583-0.448-0.8c-0.19-0.216-0.414-0.381-0.67-0.494c-0.256-0.112-0.526-0.169-0.812-0.169s-0.557,0.057-0.812,0.169
			c-0.256,0.113-0.479,0.278-0.669,0.494c-0.191,0.217-0.341,0.483-0.449,0.8s-0.162,0.678-0.162,1.086
			C100.964,18.034,101.018,18.396,101.126,18.712z"/>
		<path class="st5" d="M108.621,14.26v1.417h0.025c0.269-0.546,0.599-0.949,0.988-1.209c0.39-0.261,0.884-0.382,1.482-0.364v1.17
			c-0.442,0-0.819,0.061-1.131,0.182c-0.312,0.122-0.563,0.3-0.755,0.533c-0.19,0.234-0.329,0.519-0.416,0.852
			c-0.086,0.334-0.13,0.718-0.13,1.15v2.99h-1.104V14.26H108.621z"/>
	</g>
	<g>
		<path class="st6" d="M118.981,52.64c0.069,0.134,0.161,0.241,0.276,0.324c0.114,0.083,0.249,0.144,0.403,0.184
			c0.155,0.04,0.315,0.061,0.48,0.061c0.112,0,0.231-0.01,0.36-0.028c0.128-0.019,0.247-0.055,0.359-0.107
			c0.112-0.054,0.205-0.127,0.28-0.221c0.074-0.093,0.112-0.212,0.112-0.355c0-0.155-0.05-0.28-0.148-0.376
			c-0.099-0.097-0.228-0.176-0.388-0.24s-0.342-0.12-0.544-0.168c-0.203-0.048-0.408-0.102-0.616-0.16
			c-0.214-0.053-0.422-0.118-0.624-0.196c-0.203-0.077-0.384-0.177-0.544-0.3c-0.16-0.122-0.289-0.275-0.388-0.46
			c-0.1-0.184-0.148-0.406-0.148-0.668c0-0.293,0.062-0.548,0.188-0.764c0.126-0.216,0.29-0.396,0.492-0.54
			c0.203-0.145,0.433-0.251,0.688-0.32s0.512-0.104,0.768-0.104c0.299,0,0.586,0.033,0.86,0.1s0.519,0.175,0.731,0.324
			c0.214,0.149,0.383,0.34,0.509,0.572c0.125,0.231,0.188,0.513,0.188,0.844h-1.216c-0.011-0.171-0.047-0.312-0.108-0.424
			c-0.061-0.112-0.143-0.2-0.243-0.265c-0.102-0.063-0.218-0.109-0.349-0.136s-0.273-0.04-0.428-0.04
			c-0.102,0-0.203,0.011-0.304,0.032c-0.102,0.021-0.193,0.059-0.276,0.112c-0.083,0.053-0.15,0.119-0.204,0.199
			s-0.08,0.182-0.08,0.305c0,0.111,0.021,0.202,0.064,0.271c0.042,0.069,0.126,0.134,0.252,0.192
			c0.125,0.059,0.299,0.117,0.52,0.176c0.222,0.059,0.511,0.134,0.868,0.224c0.106,0.021,0.255,0.061,0.444,0.116
			c0.188,0.056,0.377,0.146,0.563,0.269c0.187,0.122,0.349,0.286,0.484,0.491c0.136,0.206,0.204,0.469,0.204,0.788
			c0,0.262-0.051,0.504-0.152,0.729c-0.102,0.224-0.252,0.417-0.452,0.58c-0.2,0.162-0.447,0.289-0.744,0.38
			c-0.296,0.091-0.639,0.136-1.027,0.136c-0.315,0-0.62-0.039-0.916-0.116s-0.558-0.198-0.784-0.363
			c-0.227-0.166-0.407-0.376-0.54-0.633c-0.134-0.256-0.197-0.56-0.192-0.912h1.217C118.878,52.345,118.912,52.508,118.981,52.64z"
			/>
		<path class="st6" d="M123.245,50.52c0.117-0.176,0.267-0.317,0.448-0.424s0.386-0.183,0.612-0.228
			c0.227-0.046,0.454-0.068,0.684-0.068c0.208,0,0.419,0.015,0.632,0.044c0.214,0.029,0.408,0.087,0.584,0.172
			c0.177,0.086,0.32,0.204,0.433,0.356c0.111,0.151,0.168,0.354,0.168,0.604v2.152c0,0.187,0.011,0.365,0.031,0.536
			c0.021,0.171,0.06,0.299,0.112,0.384h-1.151c-0.021-0.064-0.039-0.129-0.053-0.196c-0.013-0.066-0.022-0.135-0.027-0.204
			c-0.182,0.188-0.396,0.317-0.641,0.393c-0.245,0.074-0.496,0.111-0.752,0.111c-0.197,0-0.381-0.023-0.552-0.071
			s-0.32-0.123-0.448-0.225c-0.128-0.101-0.228-0.229-0.3-0.384c-0.072-0.154-0.108-0.339-0.108-0.552
			c0-0.234,0.042-0.428,0.124-0.58c0.083-0.152,0.189-0.273,0.32-0.364s0.28-0.158,0.448-0.204c0.168-0.045,0.337-0.081,0.508-0.107
			s0.339-0.048,0.504-0.064c0.165-0.016,0.312-0.04,0.44-0.071c0.128-0.032,0.229-0.079,0.304-0.141
			c0.074-0.062,0.109-0.15,0.104-0.268c0-0.123-0.02-0.221-0.06-0.292c-0.04-0.072-0.094-0.128-0.16-0.168s-0.144-0.067-0.231-0.08
			c-0.089-0.014-0.184-0.021-0.284-0.021c-0.225,0-0.4,0.048-0.528,0.145c-0.128,0.096-0.203,0.256-0.224,0.479h-1.137
			C123.062,50.918,123.128,50.697,123.245,50.52z M125.489,52.125c-0.072,0.023-0.149,0.044-0.231,0.06
			c-0.083,0.017-0.17,0.029-0.261,0.04s-0.181,0.024-0.271,0.04c-0.086,0.017-0.17,0.037-0.252,0.064
			c-0.083,0.026-0.155,0.062-0.216,0.107c-0.062,0.046-0.111,0.104-0.148,0.172c-0.037,0.069-0.056,0.158-0.056,0.265
			c0,0.102,0.019,0.187,0.056,0.256s0.088,0.124,0.152,0.164c0.063,0.04,0.139,0.067,0.224,0.084
			c0.085,0.016,0.173,0.023,0.264,0.023c0.225,0,0.397-0.037,0.521-0.111c0.122-0.075,0.213-0.164,0.271-0.269
			c0.059-0.104,0.095-0.209,0.108-0.315s0.02-0.192,0.02-0.256v-0.425C125.621,52.067,125.562,52.1,125.489,52.125z"/>
		<path class="st6" d="M128.766,49.913v0.576h0.023c0.145-0.24,0.331-0.415,0.561-0.524c0.229-0.109,0.464-0.164,0.703-0.164
			c0.305,0,0.554,0.041,0.748,0.124c0.195,0.083,0.349,0.197,0.46,0.344c0.112,0.147,0.191,0.325,0.236,0.536s0.068,0.444,0.068,0.7
			v2.544h-1.137v-2.336c0-0.342-0.053-0.596-0.159-0.764c-0.107-0.168-0.296-0.252-0.568-0.252c-0.31,0-0.533,0.092-0.672,0.275
			c-0.139,0.185-0.208,0.487-0.208,0.908v2.168h-1.136v-4.136H128.766z"/>
		<path class="st6" d="M135.365,53.52c-0.133,0.225-0.308,0.386-0.523,0.484c-0.217,0.099-0.461,0.147-0.732,0.147
			c-0.31,0-0.581-0.06-0.816-0.18c-0.234-0.12-0.428-0.282-0.58-0.488c-0.151-0.205-0.267-0.44-0.344-0.708
			c-0.077-0.267-0.116-0.544-0.116-0.831c0-0.277,0.039-0.546,0.116-0.805s0.192-0.486,0.344-0.684
			c0.152-0.197,0.343-0.356,0.572-0.477s0.496-0.18,0.8-0.18c0.245,0,0.479,0.052,0.7,0.156c0.222,0.104,0.396,0.257,0.524,0.46
			h0.016v-2.08h1.136v5.712h-1.08V53.52H135.365z M135.317,51.476c-0.032-0.157-0.087-0.296-0.164-0.416s-0.178-0.217-0.3-0.292
			c-0.123-0.074-0.277-0.111-0.464-0.111c-0.188,0-0.345,0.037-0.473,0.111c-0.128,0.075-0.23,0.174-0.308,0.296
			c-0.077,0.123-0.134,0.263-0.168,0.42c-0.035,0.158-0.052,0.322-0.052,0.492c0,0.16,0.019,0.32,0.056,0.48s0.098,0.303,0.18,0.428
			c0.083,0.125,0.187,0.227,0.312,0.304c0.125,0.078,0.275,0.116,0.452,0.116c0.187,0,0.343-0.037,0.468-0.112
			c0.125-0.074,0.226-0.174,0.3-0.3c0.075-0.125,0.128-0.268,0.16-0.428s0.048-0.325,0.048-0.496S135.35,51.634,135.317,51.476z"/>
		<path class="st6" d="M138.453,48.337v2.08h0.016c0.139-0.214,0.327-0.369,0.564-0.468s0.483-0.148,0.74-0.148
			c0.208,0,0.413,0.043,0.615,0.128c0.203,0.086,0.386,0.216,0.548,0.393c0.163,0.176,0.295,0.401,0.396,0.676
			s0.152,0.602,0.152,0.979c0,0.379-0.051,0.706-0.152,0.98s-0.233,0.5-0.396,0.676c-0.162,0.176-0.345,0.307-0.548,0.392
			c-0.202,0.086-0.407,0.128-0.615,0.128c-0.305,0-0.576-0.048-0.816-0.144s-0.422-0.259-0.544-0.488h-0.016v0.528h-1.08v-5.712
			H138.453z M140.293,51.48c-0.037-0.159-0.096-0.301-0.176-0.424c-0.08-0.122-0.181-0.22-0.3-0.292
			c-0.12-0.072-0.266-0.107-0.437-0.107c-0.165,0-0.31,0.035-0.432,0.107c-0.123,0.072-0.225,0.17-0.305,0.292
			c-0.079,0.123-0.139,0.265-0.176,0.424c-0.037,0.16-0.056,0.328-0.056,0.504c0,0.171,0.019,0.337,0.056,0.496
			c0.037,0.16,0.097,0.302,0.176,0.425c0.08,0.122,0.182,0.22,0.305,0.292c0.122,0.071,0.267,0.107,0.432,0.107
			c0.171,0,0.316-0.036,0.437-0.107c0.119-0.072,0.22-0.17,0.3-0.292c0.08-0.123,0.139-0.265,0.176-0.425
			c0.037-0.159,0.056-0.325,0.056-0.496C140.349,51.808,140.33,51.64,140.293,51.48z"/>
		<path class="st6" d="M142.229,51.085c0.101-0.27,0.245-0.499,0.432-0.688c0.187-0.188,0.411-0.336,0.672-0.439
			c0.262-0.104,0.555-0.156,0.88-0.156s0.62,0.052,0.885,0.156c0.264,0.104,0.489,0.251,0.676,0.439
			c0.187,0.189,0.33,0.419,0.432,0.688s0.152,0.569,0.152,0.899c0,0.331-0.051,0.63-0.152,0.896s-0.245,0.495-0.432,0.684
			c-0.187,0.189-0.412,0.335-0.676,0.437c-0.265,0.102-0.56,0.151-0.885,0.151s-0.618-0.05-0.88-0.151
			c-0.261-0.102-0.485-0.247-0.672-0.437c-0.187-0.188-0.331-0.417-0.432-0.684c-0.102-0.267-0.152-0.565-0.152-0.896
			C142.077,51.654,142.128,51.354,142.229,51.085z M143.261,52.469c0.032,0.157,0.087,0.299,0.164,0.424
			c0.078,0.126,0.181,0.226,0.309,0.3c0.128,0.075,0.288,0.112,0.479,0.112c0.192,0,0.354-0.037,0.484-0.112
			c0.131-0.074,0.234-0.174,0.312-0.3c0.078-0.125,0.133-0.267,0.164-0.424c0.032-0.157,0.049-0.318,0.049-0.484
			c0-0.165-0.017-0.327-0.049-0.487c-0.031-0.16-0.086-0.302-0.164-0.424c-0.077-0.123-0.181-0.223-0.312-0.301
			c-0.131-0.077-0.292-0.115-0.484-0.115c-0.191,0-0.352,0.038-0.479,0.115c-0.128,0.078-0.23,0.178-0.309,0.301
			c-0.077,0.122-0.132,0.264-0.164,0.424c-0.031,0.16-0.048,0.322-0.048,0.487C143.213,52.15,143.229,52.311,143.261,52.469z"/>
		<path class="st6" d="M146.789,49.913h1.296l0.728,1.08l0.721-1.08h1.256l-1.36,1.936l1.528,2.2h-1.296l-0.864-1.304l-0.864,1.304
			h-1.271l1.487-2.176L146.789,49.913z"/>
		<path class="st6" d="M151.444,51.217v-1.232h1.257v1.232H151.444z M152.701,52.816v1.232h-1.257v-1.232H152.701z"/>
		<path class="st6" d="M156.917,49.913v0.576h0.024c0.144-0.24,0.33-0.415,0.56-0.524s0.464-0.164,0.704-0.164
			c0.304,0,0.553,0.041,0.748,0.124c0.194,0.083,0.348,0.197,0.46,0.344c0.112,0.147,0.19,0.325,0.236,0.536
			c0.045,0.211,0.067,0.444,0.067,0.7v2.544h-1.136v-2.336c0-0.342-0.054-0.596-0.16-0.764s-0.296-0.252-0.567-0.252
			c-0.31,0-0.534,0.092-0.673,0.275c-0.139,0.185-0.208,0.487-0.208,0.908v2.168h-1.136v-4.136H156.917z"/>
		<path class="st6" d="M160.604,51.085c0.102-0.27,0.245-0.499,0.433-0.688c0.187-0.188,0.41-0.336,0.672-0.439
			c0.261-0.104,0.555-0.156,0.88-0.156s0.62,0.052,0.884,0.156c0.264,0.104,0.489,0.251,0.676,0.439
			c0.187,0.189,0.331,0.419,0.433,0.688c0.101,0.27,0.151,0.569,0.151,0.899c0,0.331-0.051,0.63-0.151,0.896
			c-0.102,0.267-0.246,0.495-0.433,0.684c-0.187,0.189-0.412,0.335-0.676,0.437s-0.559,0.151-0.884,0.151s-0.619-0.05-0.88-0.151
			c-0.262-0.102-0.485-0.247-0.672-0.437c-0.188-0.188-0.331-0.417-0.433-0.684s-0.151-0.565-0.151-0.896
			C160.453,51.654,160.503,51.354,160.604,51.085z M161.637,52.469c0.032,0.157,0.087,0.299,0.164,0.424
			c0.077,0.126,0.18,0.226,0.308,0.3c0.128,0.075,0.288,0.112,0.48,0.112c0.191,0,0.354-0.037,0.483-0.112
			c0.131-0.074,0.235-0.174,0.312-0.3c0.077-0.125,0.132-0.267,0.164-0.424s0.048-0.318,0.048-0.484
			c0-0.165-0.016-0.327-0.048-0.487s-0.087-0.302-0.164-0.424c-0.077-0.123-0.182-0.223-0.312-0.301
			c-0.13-0.077-0.292-0.115-0.483-0.115c-0.192,0-0.353,0.038-0.48,0.115c-0.128,0.078-0.23,0.178-0.308,0.301
			c-0.077,0.122-0.132,0.264-0.164,0.424s-0.048,0.322-0.048,0.487C161.589,52.15,161.604,52.311,161.637,52.469z"/>
		<path class="st6" d="M167.845,50.52c0.117-0.176,0.267-0.317,0.448-0.424c0.181-0.106,0.385-0.183,0.611-0.228
			c0.227-0.046,0.455-0.068,0.685-0.068c0.208,0,0.418,0.015,0.632,0.044c0.213,0.029,0.408,0.087,0.584,0.172
			c0.176,0.086,0.319,0.204,0.432,0.356c0.112,0.151,0.168,0.354,0.168,0.604v2.152c0,0.187,0.011,0.365,0.032,0.536
			s0.059,0.299,0.112,0.384h-1.152c-0.021-0.064-0.039-0.129-0.052-0.196c-0.014-0.066-0.023-0.135-0.028-0.204
			c-0.182,0.188-0.395,0.317-0.64,0.393c-0.246,0.074-0.496,0.111-0.752,0.111c-0.197,0-0.382-0.023-0.553-0.071
			c-0.17-0.048-0.319-0.123-0.447-0.225c-0.128-0.101-0.229-0.229-0.301-0.384c-0.071-0.154-0.107-0.339-0.107-0.552
			c0-0.234,0.041-0.428,0.124-0.58c0.082-0.152,0.189-0.273,0.32-0.364c0.13-0.091,0.279-0.158,0.447-0.204
			c0.168-0.045,0.338-0.081,0.508-0.107c0.171-0.026,0.339-0.048,0.505-0.064c0.165-0.016,0.312-0.04,0.439-0.071
			c0.128-0.032,0.229-0.079,0.304-0.141c0.075-0.062,0.109-0.15,0.104-0.268c0-0.123-0.021-0.221-0.06-0.292
			c-0.04-0.072-0.094-0.128-0.16-0.168c-0.067-0.04-0.145-0.067-0.232-0.08c-0.088-0.014-0.183-0.021-0.284-0.021
			c-0.224,0-0.399,0.048-0.527,0.145c-0.128,0.096-0.203,0.256-0.225,0.479h-1.136C167.66,50.918,167.728,50.697,167.845,50.52z
			 M170.089,52.125c-0.072,0.023-0.149,0.044-0.232,0.06c-0.083,0.017-0.169,0.029-0.26,0.04s-0.182,0.024-0.272,0.04
			c-0.085,0.017-0.169,0.037-0.252,0.064c-0.082,0.026-0.154,0.062-0.216,0.107c-0.062,0.046-0.11,0.104-0.147,0.172
			c-0.038,0.069-0.057,0.158-0.057,0.265c0,0.102,0.019,0.187,0.057,0.256c0.037,0.069,0.088,0.124,0.151,0.164
			c0.064,0.04,0.139,0.067,0.225,0.084c0.085,0.016,0.173,0.023,0.264,0.023c0.224,0,0.397-0.037,0.52-0.111
			c0.123-0.075,0.214-0.164,0.272-0.269c0.059-0.104,0.095-0.209,0.107-0.315c0.014-0.106,0.021-0.192,0.021-0.256v-0.425
			C170.221,52.067,170.16,52.1,170.089,52.125z"/>
		<path class="st6" d="M174.261,50.657c-0.182,0-0.333,0.041-0.456,0.124c-0.123,0.082-0.223,0.188-0.3,0.319
			s-0.132,0.275-0.164,0.433s-0.048,0.313-0.048,0.468c0,0.149,0.016,0.301,0.048,0.456c0.032,0.154,0.084,0.295,0.156,0.42
			c0.071,0.125,0.169,0.228,0.292,0.308c0.122,0.08,0.271,0.12,0.447,0.12c0.272,0,0.481-0.076,0.629-0.228
			c0.146-0.152,0.238-0.356,0.275-0.612h1.096c-0.074,0.55-0.287,0.968-0.64,1.256c-0.352,0.288-0.803,0.432-1.352,0.432
			c-0.31,0-0.594-0.052-0.853-0.155c-0.259-0.104-0.479-0.249-0.66-0.437c-0.181-0.187-0.322-0.409-0.424-0.668
			s-0.151-0.542-0.151-0.852c0-0.32,0.046-0.617,0.14-0.893c0.093-0.274,0.23-0.512,0.412-0.712
			c0.181-0.199,0.402-0.355,0.664-0.468c0.261-0.112,0.56-0.168,0.896-0.168c0.245,0,0.481,0.032,0.708,0.096
			c0.227,0.064,0.43,0.162,0.608,0.292c0.179,0.131,0.324,0.294,0.436,0.488c0.112,0.194,0.177,0.426,0.192,0.692h-1.112
			C175.026,50.894,174.746,50.657,174.261,50.657z"/>
		<path class="st6" d="M178.853,50.657c-0.182,0-0.333,0.041-0.456,0.124c-0.123,0.082-0.223,0.188-0.3,0.319
			s-0.132,0.275-0.164,0.433s-0.048,0.313-0.048,0.468c0,0.149,0.016,0.301,0.048,0.456c0.032,0.154,0.084,0.295,0.156,0.42
			c0.071,0.125,0.169,0.228,0.292,0.308c0.122,0.08,0.271,0.12,0.447,0.12c0.272,0,0.481-0.076,0.629-0.228
			c0.146-0.152,0.238-0.356,0.275-0.612h1.096c-0.074,0.55-0.287,0.968-0.64,1.256c-0.352,0.288-0.803,0.432-1.352,0.432
			c-0.31,0-0.594-0.052-0.853-0.155c-0.259-0.104-0.479-0.249-0.66-0.437c-0.181-0.187-0.322-0.409-0.424-0.668
			s-0.151-0.542-0.151-0.852c0-0.32,0.046-0.617,0.14-0.893c0.093-0.274,0.23-0.512,0.412-0.712
			c0.181-0.199,0.402-0.355,0.664-0.468c0.261-0.112,0.56-0.168,0.896-0.168c0.245,0,0.481,0.032,0.708,0.096
			c0.227,0.064,0.43,0.162,0.608,0.292c0.179,0.131,0.324,0.294,0.436,0.488c0.112,0.194,0.177,0.426,0.192,0.692h-1.112
			C179.618,50.894,179.338,50.657,178.853,50.657z"/>
		<path class="st6" d="M182.685,53.056c0.171,0.166,0.416,0.248,0.735,0.248c0.229,0,0.427-0.057,0.593-0.172
			c0.165-0.114,0.267-0.236,0.304-0.364h1c-0.16,0.496-0.405,0.851-0.736,1.064c-0.33,0.213-0.73,0.319-1.199,0.319
			c-0.326,0-0.619-0.052-0.881-0.155c-0.261-0.104-0.482-0.252-0.664-0.444c-0.181-0.192-0.321-0.421-0.42-0.688
			s-0.147-0.561-0.147-0.881c0-0.309,0.051-0.597,0.151-0.863c0.102-0.267,0.246-0.497,0.433-0.692
			c0.187-0.194,0.409-0.348,0.668-0.46s0.545-0.168,0.86-0.168c0.352,0,0.658,0.068,0.92,0.204c0.261,0.136,0.476,0.318,0.644,0.548
			s0.289,0.491,0.364,0.784c0.074,0.293,0.101,0.6,0.08,0.92h-2.984C182.42,52.625,182.514,52.891,182.685,53.056z M183.969,50.881
			c-0.137-0.149-0.343-0.224-0.62-0.224c-0.182,0-0.332,0.03-0.452,0.092s-0.216,0.137-0.288,0.228s-0.123,0.188-0.152,0.288
			c-0.029,0.102-0.047,0.192-0.052,0.272h1.848C184.199,51.249,184.104,51.03,183.969,50.881z"/>
		<path class="st6" d="M187.017,53.02c0.051,0.088,0.116,0.16,0.196,0.217c0.08,0.056,0.172,0.097,0.275,0.123
			c0.104,0.027,0.212,0.04,0.324,0.04c0.08,0,0.164-0.009,0.252-0.027s0.168-0.048,0.24-0.088s0.132-0.094,0.181-0.16
			c0.047-0.066,0.072-0.15,0.072-0.252c0-0.171-0.114-0.299-0.341-0.384c-0.227-0.086-0.543-0.171-0.948-0.257
			c-0.165-0.037-0.326-0.081-0.484-0.132c-0.157-0.051-0.297-0.117-0.42-0.2c-0.122-0.082-0.221-0.187-0.296-0.312
			c-0.074-0.125-0.111-0.278-0.111-0.46c0-0.267,0.052-0.485,0.155-0.656c0.104-0.171,0.241-0.305,0.412-0.404
			c0.171-0.099,0.363-0.168,0.576-0.208c0.213-0.039,0.432-0.06,0.656-0.06c0.224,0,0.441,0.021,0.651,0.064
			c0.212,0.042,0.399,0.114,0.564,0.216s0.303,0.235,0.412,0.403s0.175,0.381,0.196,0.637h-1.08
			c-0.016-0.219-0.099-0.367-0.248-0.444s-0.325-0.116-0.528-0.116c-0.063,0-0.134,0.004-0.208,0.013
			c-0.074,0.008-0.143,0.025-0.204,0.052s-0.113,0.065-0.156,0.116c-0.042,0.051-0.063,0.118-0.063,0.204
			c0,0.101,0.037,0.184,0.112,0.247c0.074,0.064,0.172,0.116,0.292,0.156c0.119,0.04,0.257,0.076,0.411,0.108
			c0.155,0.032,0.312,0.066,0.473,0.104c0.165,0.038,0.327,0.083,0.484,0.137c0.157,0.053,0.297,0.124,0.42,0.212
			c0.122,0.088,0.221,0.197,0.296,0.328c0.074,0.13,0.112,0.292,0.112,0.483c0,0.272-0.056,0.5-0.164,0.685
			c-0.109,0.184-0.252,0.332-0.429,0.443c-0.176,0.112-0.377,0.191-0.604,0.236c-0.228,0.045-0.458,0.067-0.692,0.067
			c-0.24,0-0.475-0.023-0.704-0.071s-0.434-0.128-0.612-0.24s-0.325-0.26-0.439-0.444c-0.115-0.184-0.178-0.414-0.188-0.691h1.08
			C186.94,52.827,186.966,52.932,187.017,53.02z"/>
		<path class="st6" d="M191.312,53.02c0.051,0.088,0.116,0.16,0.196,0.217c0.08,0.056,0.172,0.097,0.276,0.123
			c0.104,0.027,0.212,0.04,0.323,0.04c0.08,0,0.164-0.009,0.252-0.027c0.089-0.019,0.168-0.048,0.24-0.088s0.132-0.094,0.181-0.16
			c0.048-0.066,0.071-0.15,0.071-0.252c0-0.171-0.113-0.299-0.34-0.384c-0.227-0.086-0.543-0.171-0.948-0.257
			c-0.165-0.037-0.326-0.081-0.483-0.132s-0.298-0.117-0.42-0.2c-0.123-0.082-0.222-0.187-0.296-0.312
			c-0.075-0.125-0.112-0.278-0.112-0.46c0-0.267,0.052-0.485,0.156-0.656c0.104-0.171,0.241-0.305,0.412-0.404
			c0.17-0.099,0.362-0.168,0.575-0.208c0.214-0.039,0.433-0.06,0.656-0.06s0.441,0.021,0.652,0.064
			c0.21,0.042,0.398,0.114,0.563,0.216s0.303,0.235,0.412,0.403s0.175,0.381,0.196,0.637h-1.08
			c-0.016-0.219-0.099-0.367-0.248-0.444s-0.325-0.116-0.528-0.116c-0.063,0-0.133,0.004-0.208,0.013
			c-0.074,0.008-0.143,0.025-0.204,0.052c-0.061,0.026-0.113,0.065-0.155,0.116c-0.043,0.051-0.064,0.118-0.064,0.204
			c0,0.101,0.037,0.184,0.112,0.247c0.074,0.064,0.172,0.116,0.292,0.156s0.257,0.076,0.412,0.108
			c0.154,0.032,0.312,0.066,0.472,0.104c0.165,0.038,0.327,0.083,0.484,0.137c0.157,0.053,0.297,0.124,0.42,0.212
			c0.122,0.088,0.221,0.197,0.296,0.328c0.074,0.13,0.112,0.292,0.112,0.483c0,0.272-0.056,0.5-0.164,0.685
			c-0.109,0.184-0.252,0.332-0.429,0.443c-0.176,0.112-0.377,0.191-0.604,0.236s-0.458,0.067-0.692,0.067
			c-0.24,0-0.475-0.023-0.704-0.071s-0.433-0.128-0.611-0.24s-0.326-0.26-0.44-0.444c-0.114-0.184-0.178-0.414-0.188-0.691h1.079
			C191.236,52.827,191.262,52.932,191.312,53.02z"/>
		<path class="st6" d="M199.148,49.913v0.76h-0.832v2.048c0,0.192,0.032,0.32,0.096,0.384c0.064,0.064,0.192,0.097,0.384,0.097
			c0.064,0,0.126-0.003,0.185-0.009c0.059-0.005,0.114-0.013,0.168-0.023v0.88c-0.096,0.016-0.203,0.026-0.32,0.032
			c-0.117,0.005-0.231,0.008-0.344,0.008c-0.176,0-0.343-0.012-0.5-0.036c-0.157-0.023-0.296-0.07-0.416-0.14
			s-0.215-0.168-0.284-0.296s-0.104-0.296-0.104-0.504v-2.44h-0.688v-0.76h0.688v-1.24h1.136v1.24H199.148z"/>
		<path class="st6" d="M199.717,51.085c0.102-0.27,0.245-0.499,0.432-0.688c0.187-0.188,0.411-0.336,0.672-0.439
			c0.262-0.104,0.555-0.156,0.881-0.156c0.325,0,0.619,0.052,0.884,0.156c0.264,0.104,0.489,0.251,0.676,0.439
			c0.187,0.189,0.331,0.419,0.432,0.688c0.102,0.27,0.152,0.569,0.152,0.899c0,0.331-0.051,0.63-0.152,0.896
			c-0.101,0.267-0.245,0.495-0.432,0.684c-0.187,0.189-0.412,0.335-0.676,0.437c-0.265,0.102-0.559,0.151-0.884,0.151
			c-0.326,0-0.619-0.05-0.881-0.151c-0.261-0.102-0.485-0.247-0.672-0.437c-0.187-0.188-0.33-0.417-0.432-0.684
			s-0.152-0.565-0.152-0.896C199.564,51.654,199.615,51.354,199.717,51.085z M200.749,52.469c0.031,0.157,0.086,0.299,0.164,0.424
			c0.077,0.126,0.18,0.226,0.308,0.3c0.128,0.075,0.288,0.112,0.48,0.112c0.191,0,0.353-0.037,0.483-0.112
			c0.131-0.074,0.234-0.174,0.312-0.3c0.077-0.125,0.132-0.267,0.164-0.424c0.031-0.157,0.048-0.318,0.048-0.484
			c0-0.165-0.017-0.327-0.048-0.487c-0.032-0.16-0.087-0.302-0.164-0.424c-0.078-0.123-0.182-0.223-0.312-0.301
			c-0.131-0.077-0.292-0.115-0.483-0.115c-0.192,0-0.353,0.038-0.48,0.115c-0.128,0.078-0.23,0.178-0.308,0.301
			c-0.078,0.122-0.133,0.264-0.164,0.424c-0.032,0.16-0.048,0.322-0.048,0.487C200.701,52.15,200.717,52.311,200.749,52.469z"/>
		<path class="st6" d="M118.857,62.62c0.051,0.088,0.116,0.16,0.196,0.217c0.08,0.056,0.172,0.097,0.275,0.123
			c0.104,0.027,0.212,0.04,0.324,0.04c0.08,0,0.164-0.009,0.252-0.027s0.168-0.048,0.24-0.088s0.132-0.094,0.18-0.16
			s0.072-0.15,0.072-0.252c0-0.171-0.113-0.299-0.34-0.384c-0.227-0.086-0.543-0.171-0.948-0.257
			c-0.165-0.037-0.326-0.081-0.484-0.132c-0.157-0.051-0.297-0.117-0.42-0.2c-0.122-0.082-0.221-0.187-0.296-0.312
			c-0.074-0.125-0.111-0.278-0.111-0.46c0-0.267,0.052-0.485,0.155-0.656c0.104-0.171,0.241-0.305,0.412-0.404
			c0.171-0.099,0.363-0.168,0.576-0.208c0.213-0.039,0.432-0.06,0.656-0.06c0.224,0,0.441,0.021,0.651,0.064
			c0.211,0.042,0.399,0.114,0.564,0.216s0.303,0.235,0.412,0.403s0.175,0.381,0.196,0.637h-1.08
			c-0.017-0.219-0.099-0.367-0.248-0.444s-0.325-0.116-0.528-0.116c-0.063,0-0.134,0.004-0.208,0.013
			c-0.074,0.008-0.143,0.025-0.204,0.052s-0.113,0.065-0.156,0.116c-0.042,0.051-0.063,0.118-0.063,0.204
			c0,0.101,0.037,0.184,0.112,0.247c0.074,0.064,0.172,0.116,0.292,0.156c0.119,0.04,0.257,0.076,0.411,0.108
			c0.155,0.032,0.312,0.066,0.473,0.104c0.165,0.038,0.326,0.083,0.483,0.137c0.157,0.053,0.298,0.124,0.42,0.212
			c0.123,0.088,0.222,0.197,0.297,0.328c0.074,0.13,0.111,0.292,0.111,0.483c0,0.272-0.055,0.5-0.164,0.685
			c-0.109,0.184-0.252,0.332-0.428,0.443c-0.176,0.112-0.377,0.191-0.604,0.236c-0.228,0.045-0.458,0.067-0.692,0.067
			c-0.24,0-0.475-0.023-0.704-0.071s-0.434-0.128-0.612-0.24s-0.325-0.26-0.439-0.444c-0.115-0.184-0.178-0.414-0.188-0.691h1.08
			C118.781,62.427,118.807,62.532,118.857,62.62z"/>
		<path class="st6" d="M123.726,64.88c-0.219,0.144-0.523,0.216-0.912,0.216c-0.117,0-0.233-0.004-0.348-0.013
			c-0.115-0.008-0.231-0.017-0.349-0.027V64.12c0.106,0.011,0.216,0.021,0.328,0.032s0.224,0.014,0.336,0.008
			c0.149-0.016,0.26-0.074,0.332-0.176s0.108-0.213,0.108-0.336c0-0.091-0.017-0.176-0.048-0.256l-1.448-3.88h1.208l0.936,2.832
			h0.017l0.903-2.832h1.177l-1.729,4.647C124.114,64.495,123.944,64.736,123.726,64.88z"/>
		<path class="st6" d="M127.306,62.62c0.05,0.088,0.115,0.16,0.195,0.217c0.08,0.056,0.172,0.097,0.276,0.123
			c0.104,0.027,0.212,0.04,0.324,0.04c0.08,0,0.164-0.009,0.252-0.027s0.168-0.048,0.239-0.088c0.072-0.04,0.133-0.094,0.181-0.16
			s0.072-0.15,0.072-0.252c0-0.171-0.114-0.299-0.341-0.384c-0.227-0.086-0.542-0.171-0.947-0.257
			c-0.166-0.037-0.327-0.081-0.484-0.132s-0.298-0.117-0.42-0.2c-0.123-0.082-0.222-0.187-0.296-0.312
			c-0.075-0.125-0.112-0.278-0.112-0.46c0-0.267,0.052-0.485,0.156-0.656c0.104-0.171,0.241-0.305,0.412-0.404
			c0.17-0.099,0.362-0.168,0.576-0.208c0.213-0.039,0.432-0.06,0.655-0.06c0.225,0,0.441,0.021,0.652,0.064
			c0.211,0.042,0.398,0.114,0.564,0.216c0.165,0.102,0.302,0.235,0.411,0.403s0.175,0.381,0.196,0.637h-1.08
			c-0.016-0.219-0.099-0.367-0.248-0.444s-0.325-0.116-0.527-0.116c-0.064,0-0.134,0.004-0.208,0.013
			c-0.075,0.008-0.144,0.025-0.204,0.052c-0.062,0.026-0.113,0.065-0.156,0.116s-0.064,0.118-0.064,0.204
			c0,0.101,0.038,0.184,0.112,0.247c0.074,0.064,0.172,0.116,0.292,0.156s0.258,0.076,0.412,0.108s0.312,0.066,0.472,0.104
			c0.166,0.038,0.327,0.083,0.484,0.137c0.157,0.053,0.297,0.124,0.42,0.212s0.222,0.197,0.296,0.328
			c0.075,0.13,0.112,0.292,0.112,0.483c0,0.272-0.055,0.5-0.164,0.685c-0.109,0.184-0.252,0.332-0.428,0.443
			c-0.177,0.112-0.378,0.191-0.604,0.236s-0.457,0.067-0.692,0.067c-0.239,0-0.475-0.023-0.703-0.071
			c-0.229-0.048-0.434-0.128-0.612-0.24s-0.325-0.26-0.44-0.444c-0.114-0.184-0.177-0.414-0.188-0.691h1.08
			C127.229,62.427,127.255,62.532,127.306,62.62z"/>
		<path class="st6" d="M132.917,59.513v0.76h-0.832v2.048c0,0.192,0.032,0.32,0.096,0.384c0.064,0.064,0.192,0.097,0.385,0.097
			c0.063,0,0.125-0.003,0.184-0.009c0.059-0.005,0.114-0.013,0.168-0.023v0.88c-0.096,0.016-0.202,0.026-0.32,0.032
			c-0.117,0.005-0.231,0.008-0.344,0.008c-0.176,0-0.343-0.012-0.5-0.036c-0.157-0.023-0.296-0.07-0.416-0.14
			s-0.215-0.168-0.284-0.296s-0.104-0.296-0.104-0.504v-2.44h-0.688v-0.76h0.688v-1.24h1.136v1.24H132.917z"/>
		<path class="st6" d="M134.677,62.656c0.171,0.166,0.416,0.248,0.736,0.248c0.229,0,0.427-0.057,0.592-0.172
			c0.165-0.114,0.267-0.236,0.304-0.364h1c-0.159,0.496-0.405,0.851-0.735,1.064c-0.331,0.213-0.73,0.319-1.2,0.319
			c-0.325,0-0.619-0.052-0.88-0.155c-0.262-0.104-0.482-0.252-0.664-0.444s-0.321-0.421-0.42-0.688s-0.148-0.561-0.148-0.881
			c0-0.309,0.051-0.597,0.152-0.863s0.245-0.497,0.432-0.692c0.187-0.194,0.409-0.348,0.668-0.46s0.546-0.168,0.86-0.168
			c0.352,0,0.658,0.068,0.92,0.204s0.477,0.318,0.645,0.548s0.289,0.491,0.363,0.784c0.075,0.293,0.102,0.6,0.08,0.92h-2.983
			C134.413,62.224,134.506,62.491,134.677,62.656z M135.961,60.48c-0.136-0.149-0.343-0.224-0.62-0.224
			c-0.181,0-0.332,0.03-0.452,0.092c-0.119,0.062-0.216,0.137-0.288,0.228c-0.071,0.091-0.122,0.188-0.151,0.288
			c-0.029,0.102-0.047,0.192-0.052,0.272h1.848C136.191,60.848,136.097,60.63,135.961,60.48z"/>
		<path class="st6" d="M139.157,59.513v0.56h0.016c0.149-0.213,0.329-0.379,0.54-0.496s0.452-0.176,0.724-0.176
			c0.262,0,0.5,0.051,0.717,0.152c0.216,0.102,0.38,0.279,0.491,0.536c0.123-0.182,0.29-0.342,0.5-0.48
			c0.211-0.139,0.46-0.208,0.748-0.208c0.219,0,0.422,0.026,0.608,0.08s0.347,0.139,0.479,0.256c0.134,0.117,0.237,0.271,0.312,0.46
			c0.074,0.189,0.112,0.418,0.112,0.685v2.768h-1.137v-2.344c0-0.139-0.005-0.27-0.016-0.393c-0.011-0.122-0.04-0.229-0.088-0.319
			s-0.119-0.163-0.212-0.217c-0.094-0.053-0.221-0.079-0.38-0.079c-0.16,0-0.29,0.03-0.389,0.092s-0.176,0.142-0.231,0.24
			c-0.057,0.099-0.094,0.21-0.112,0.336c-0.019,0.125-0.028,0.252-0.028,0.38v2.304h-1.136v-2.32c0-0.122-0.003-0.244-0.008-0.363
			c-0.006-0.12-0.028-0.231-0.068-0.332c-0.04-0.102-0.106-0.183-0.2-0.244c-0.093-0.062-0.23-0.092-0.411-0.092
			c-0.054,0-0.124,0.012-0.213,0.035c-0.088,0.024-0.173,0.069-0.256,0.137c-0.082,0.066-0.153,0.162-0.212,0.288
			c-0.059,0.125-0.088,0.289-0.088,0.491v2.4h-1.136v-4.136H139.157z"/>
		<path class="st6" d="M148.605,59.513v0.768h0.016c0.053-0.128,0.125-0.246,0.216-0.355s0.194-0.203,0.312-0.28
			c0.117-0.077,0.242-0.138,0.376-0.18c0.133-0.043,0.271-0.064,0.416-0.064c0.074,0,0.157,0.014,0.248,0.04v1.056
			c-0.054-0.011-0.118-0.02-0.192-0.027c-0.075-0.009-0.146-0.013-0.216-0.013c-0.208,0-0.384,0.035-0.528,0.104
			c-0.144,0.069-0.26,0.164-0.348,0.284s-0.151,0.26-0.188,0.42s-0.056,0.333-0.056,0.52v1.864h-1.136v-4.136H148.605z"/>
		<path class="st6" d="M151.709,62.656c0.171,0.166,0.416,0.248,0.736,0.248c0.229,0,0.427-0.057,0.592-0.172
			c0.165-0.114,0.267-0.236,0.304-0.364h1c-0.159,0.496-0.405,0.851-0.735,1.064c-0.331,0.213-0.73,0.319-1.2,0.319
			c-0.325,0-0.619-0.052-0.88-0.155c-0.262-0.104-0.482-0.252-0.664-0.444s-0.321-0.421-0.42-0.688s-0.148-0.561-0.148-0.881
			c0-0.309,0.051-0.597,0.152-0.863s0.245-0.497,0.432-0.692c0.187-0.194,0.409-0.348,0.668-0.46s0.546-0.168,0.86-0.168
			c0.352,0,0.658,0.068,0.92,0.204s0.477,0.318,0.645,0.548s0.289,0.491,0.363,0.784c0.075,0.293,0.102,0.6,0.08,0.92h-2.983
			C151.445,62.224,151.538,62.491,151.709,62.656z M152.993,60.48c-0.136-0.149-0.343-0.224-0.62-0.224
			c-0.181,0-0.332,0.03-0.452,0.092c-0.119,0.062-0.216,0.137-0.288,0.228c-0.071,0.091-0.122,0.188-0.151,0.288
			c-0.029,0.102-0.047,0.192-0.052,0.272h1.848C153.224,60.848,153.129,60.63,152.993,60.48z"/>
		<path class="st6" d="M156.041,62.62c0.051,0.088,0.116,0.16,0.196,0.217c0.08,0.056,0.172,0.097,0.275,0.123
			c0.104,0.027,0.212,0.04,0.324,0.04c0.08,0,0.164-0.009,0.252-0.027s0.168-0.048,0.24-0.088s0.132-0.094,0.18-0.16
			s0.072-0.15,0.072-0.252c0-0.171-0.113-0.299-0.34-0.384c-0.227-0.086-0.543-0.171-0.948-0.257
			c-0.165-0.037-0.326-0.081-0.484-0.132c-0.157-0.051-0.297-0.117-0.42-0.2c-0.122-0.082-0.221-0.187-0.296-0.312
			c-0.074-0.125-0.111-0.278-0.111-0.46c0-0.267,0.052-0.485,0.155-0.656c0.104-0.171,0.241-0.305,0.412-0.404
			c0.171-0.099,0.363-0.168,0.576-0.208c0.213-0.039,0.432-0.06,0.656-0.06c0.224,0,0.441,0.021,0.651,0.064
			c0.211,0.042,0.399,0.114,0.564,0.216s0.303,0.235,0.412,0.403s0.175,0.381,0.196,0.637h-1.08
			c-0.017-0.219-0.099-0.367-0.248-0.444s-0.325-0.116-0.528-0.116c-0.063,0-0.134,0.004-0.208,0.013
			c-0.074,0.008-0.143,0.025-0.204,0.052s-0.113,0.065-0.156,0.116c-0.042,0.051-0.063,0.118-0.063,0.204
			c0,0.101,0.037,0.184,0.112,0.247c0.074,0.064,0.172,0.116,0.292,0.156c0.119,0.04,0.257,0.076,0.411,0.108
			c0.155,0.032,0.312,0.066,0.473,0.104c0.165,0.038,0.326,0.083,0.483,0.137c0.157,0.053,0.298,0.124,0.42,0.212
			c0.123,0.088,0.222,0.197,0.297,0.328c0.074,0.13,0.111,0.292,0.111,0.483c0,0.272-0.055,0.5-0.164,0.685
			c-0.109,0.184-0.252,0.332-0.428,0.443c-0.176,0.112-0.377,0.191-0.604,0.236c-0.228,0.045-0.458,0.067-0.692,0.067
			c-0.24,0-0.475-0.023-0.704-0.071s-0.434-0.128-0.612-0.24s-0.325-0.26-0.439-0.444c-0.115-0.184-0.178-0.414-0.188-0.691h1.08
			C155.965,62.427,155.99,62.532,156.041,62.62z"/>
		<path class="st6" d="M159.405,60.684c0.101-0.27,0.245-0.499,0.432-0.688c0.187-0.188,0.411-0.336,0.672-0.439
			c0.262-0.104,0.555-0.156,0.88-0.156s0.62,0.052,0.885,0.156c0.264,0.104,0.489,0.251,0.676,0.439
			c0.187,0.189,0.33,0.419,0.432,0.688s0.152,0.569,0.152,0.899c0,0.331-0.051,0.63-0.152,0.896s-0.245,0.495-0.432,0.684
			c-0.187,0.189-0.412,0.335-0.676,0.437c-0.265,0.102-0.56,0.151-0.885,0.151s-0.618-0.05-0.88-0.151
			c-0.261-0.102-0.485-0.247-0.672-0.437c-0.187-0.188-0.331-0.417-0.432-0.684c-0.102-0.267-0.152-0.565-0.152-0.896
			C159.253,61.254,159.304,60.954,159.405,60.684z M160.437,62.068c0.032,0.157,0.087,0.299,0.164,0.424
			c0.078,0.126,0.181,0.226,0.309,0.3c0.128,0.075,0.288,0.112,0.479,0.112c0.192,0,0.354-0.037,0.484-0.112
			c0.131-0.074,0.234-0.174,0.312-0.3c0.078-0.125,0.133-0.267,0.164-0.424c0.032-0.157,0.049-0.318,0.049-0.484
			c0-0.165-0.017-0.327-0.049-0.487c-0.031-0.16-0.086-0.302-0.164-0.424c-0.077-0.123-0.181-0.223-0.312-0.301
			c-0.131-0.077-0.292-0.115-0.484-0.115c-0.191,0-0.352,0.038-0.479,0.115c-0.128,0.078-0.23,0.178-0.309,0.301
			c-0.077,0.122-0.132,0.264-0.164,0.424c-0.031,0.16-0.048,0.322-0.048,0.487C160.389,61.75,160.405,61.911,160.437,62.068z"/>
		<path class="st6" d="M167.068,63.648v-0.576h-0.023c-0.145,0.24-0.331,0.413-0.561,0.521c-0.229,0.106-0.464,0.159-0.704,0.159
			c-0.304,0-0.553-0.039-0.748-0.119c-0.194-0.08-0.348-0.193-0.46-0.341c-0.111-0.146-0.19-0.325-0.235-0.535
			c-0.046-0.211-0.068-0.444-0.068-0.7v-2.544h1.136v2.336c0,0.341,0.054,0.596,0.16,0.764s0.296,0.252,0.568,0.252
			c0.31,0,0.533-0.092,0.672-0.275c0.139-0.185,0.208-0.487,0.208-0.908v-2.168h1.136v4.136H167.068z"/>
		<path class="st6" d="M170.093,59.513v0.768h0.016c0.054-0.128,0.126-0.246,0.217-0.355c0.09-0.109,0.194-0.203,0.312-0.28
			s0.243-0.138,0.376-0.18c0.134-0.043,0.272-0.064,0.416-0.064c0.075,0,0.157,0.014,0.248,0.04v1.056
			c-0.054-0.011-0.117-0.02-0.192-0.027c-0.074-0.009-0.146-0.013-0.216-0.013c-0.208,0-0.384,0.035-0.527,0.104
			c-0.145,0.069-0.261,0.164-0.349,0.284s-0.15,0.26-0.188,0.42c-0.038,0.16-0.057,0.333-0.057,0.52v1.864h-1.136v-4.136H170.093z"
			/>
		<path class="st6" d="M173.957,60.257c-0.182,0-0.334,0.041-0.456,0.124c-0.123,0.082-0.223,0.188-0.301,0.319
			c-0.077,0.131-0.132,0.275-0.164,0.433c-0.031,0.157-0.048,0.313-0.048,0.468c0,0.149,0.017,0.301,0.048,0.456
			c0.032,0.154,0.084,0.295,0.156,0.42s0.17,0.228,0.292,0.308c0.123,0.08,0.272,0.12,0.448,0.12c0.271,0,0.481-0.076,0.628-0.228
			c0.146-0.152,0.238-0.356,0.276-0.612h1.096c-0.075,0.55-0.288,0.968-0.64,1.256c-0.353,0.288-0.803,0.432-1.353,0.432
			c-0.31,0-0.593-0.052-0.852-0.155c-0.259-0.104-0.479-0.249-0.66-0.437c-0.182-0.187-0.323-0.409-0.424-0.668
			c-0.102-0.259-0.152-0.542-0.152-0.852c0-0.32,0.047-0.617,0.14-0.893c0.094-0.274,0.231-0.512,0.412-0.712
			c0.182-0.199,0.403-0.355,0.664-0.468c0.262-0.112,0.561-0.168,0.896-0.168c0.245,0,0.481,0.032,0.708,0.096
			c0.227,0.064,0.429,0.162,0.607,0.292c0.179,0.131,0.324,0.294,0.437,0.488c0.111,0.194,0.176,0.426,0.191,0.692h-1.111
			C174.722,60.494,174.441,60.257,173.957,60.257z"/>
		<path class="st6" d="M177.788,62.656c0.171,0.166,0.416,0.248,0.736,0.248c0.229,0,0.427-0.057,0.592-0.172
			c0.165-0.114,0.267-0.236,0.304-0.364h1c-0.159,0.496-0.405,0.851-0.735,1.064c-0.331,0.213-0.73,0.319-1.2,0.319
			c-0.325,0-0.619-0.052-0.88-0.155c-0.262-0.104-0.482-0.252-0.664-0.444s-0.321-0.421-0.42-0.688s-0.148-0.561-0.148-0.881
			c0-0.309,0.051-0.597,0.152-0.863s0.245-0.497,0.432-0.692c0.187-0.194,0.409-0.348,0.668-0.46s0.546-0.168,0.86-0.168
			c0.352,0,0.658,0.068,0.92,0.204s0.477,0.318,0.645,0.548s0.289,0.491,0.363,0.784c0.075,0.293,0.102,0.6,0.08,0.92h-2.983
			C177.524,62.224,177.617,62.491,177.788,62.656z M179.072,60.48c-0.136-0.149-0.343-0.224-0.62-0.224
			c-0.181,0-0.332,0.03-0.452,0.092c-0.119,0.062-0.216,0.137-0.288,0.228c-0.071,0.091-0.122,0.188-0.151,0.288
			c-0.029,0.102-0.047,0.192-0.052,0.272h1.848C179.303,60.848,179.208,60.63,179.072,60.48z"/>
		<path class="st6" d="M182.121,62.62c0.05,0.088,0.115,0.16,0.195,0.217c0.08,0.056,0.172,0.097,0.276,0.123
			c0.104,0.027,0.212,0.04,0.324,0.04c0.08,0,0.164-0.009,0.252-0.027s0.168-0.048,0.239-0.088c0.072-0.04,0.133-0.094,0.181-0.16
			s0.072-0.15,0.072-0.252c0-0.171-0.114-0.299-0.341-0.384c-0.227-0.086-0.542-0.171-0.947-0.257
			c-0.166-0.037-0.327-0.081-0.484-0.132s-0.298-0.117-0.42-0.2c-0.123-0.082-0.222-0.187-0.296-0.312
			c-0.075-0.125-0.112-0.278-0.112-0.46c0-0.267,0.052-0.485,0.156-0.656c0.104-0.171,0.241-0.305,0.412-0.404
			c0.17-0.099,0.362-0.168,0.576-0.208c0.213-0.039,0.432-0.06,0.655-0.06c0.225,0,0.441,0.021,0.652,0.064
			c0.211,0.042,0.398,0.114,0.564,0.216c0.165,0.102,0.302,0.235,0.411,0.403s0.175,0.381,0.196,0.637h-1.08
			c-0.016-0.219-0.099-0.367-0.248-0.444s-0.325-0.116-0.527-0.116c-0.064,0-0.134,0.004-0.208,0.013
			c-0.075,0.008-0.144,0.025-0.204,0.052c-0.062,0.026-0.113,0.065-0.156,0.116s-0.064,0.118-0.064,0.204
			c0,0.101,0.038,0.184,0.112,0.247c0.074,0.064,0.172,0.116,0.292,0.156s0.258,0.076,0.412,0.108s0.312,0.066,0.472,0.104
			c0.166,0.038,0.327,0.083,0.484,0.137c0.157,0.053,0.297,0.124,0.42,0.212s0.222,0.197,0.296,0.328
			c0.075,0.13,0.112,0.292,0.112,0.483c0,0.272-0.055,0.5-0.164,0.685c-0.109,0.184-0.252,0.332-0.428,0.443
			c-0.177,0.112-0.378,0.191-0.604,0.236s-0.457,0.067-0.692,0.067c-0.239,0-0.475-0.023-0.703-0.071
			c-0.229-0.048-0.434-0.128-0.612-0.24s-0.325-0.26-0.44-0.444c-0.114-0.184-0.177-0.414-0.188-0.691h1.08
			C182.045,62.427,182.07,62.532,182.121,62.62z"/>
	</g>
	<g class="st7">
		<path class="st3" d="M231.665,218.653H2.835c-1.566,0-2.835-1.269-2.835-2.835V186.5h234.5v29.319
			C234.5,217.384,233.231,218.653,231.665,218.653z"/>
	</g>
	<g>
		<path class="st8" d="M35.668,48.337l2.384,3.832h0.017v-3.832h1.176v5.712h-1.256l-2.376-3.824h-0.017v3.824H34.42v-5.712H35.668z
			"/>
		<path class="st8" d="M40.38,50.521c0.117-0.176,0.267-0.317,0.448-0.424s0.386-0.183,0.612-0.228
			c0.227-0.046,0.454-0.068,0.684-0.068c0.208,0,0.419,0.015,0.632,0.044c0.214,0.029,0.408,0.087,0.584,0.172
			c0.177,0.086,0.32,0.204,0.433,0.356c0.111,0.151,0.168,0.354,0.168,0.604v2.152c0,0.187,0.011,0.365,0.031,0.536
			c0.021,0.171,0.06,0.299,0.112,0.384h-1.151c-0.021-0.064-0.039-0.129-0.053-0.196c-0.013-0.066-0.022-0.135-0.027-0.204
			c-0.182,0.188-0.396,0.317-0.641,0.393c-0.245,0.074-0.496,0.111-0.752,0.111c-0.197,0-0.381-0.023-0.552-0.071
			s-0.32-0.123-0.448-0.225c-0.128-0.101-0.228-0.229-0.3-0.384c-0.072-0.154-0.108-0.339-0.108-0.552
			c0-0.234,0.042-0.428,0.124-0.58c0.083-0.152,0.189-0.273,0.32-0.364s0.28-0.158,0.448-0.204c0.168-0.045,0.337-0.081,0.508-0.107
			s0.339-0.048,0.504-0.064c0.165-0.016,0.312-0.04,0.44-0.071c0.128-0.032,0.229-0.079,0.304-0.141
			c0.074-0.062,0.109-0.15,0.104-0.268c0-0.123-0.02-0.221-0.06-0.292c-0.04-0.072-0.094-0.128-0.16-0.168s-0.144-0.067-0.231-0.08
			c-0.089-0.014-0.184-0.021-0.284-0.021c-0.225,0-0.4,0.048-0.528,0.145c-0.128,0.096-0.203,0.256-0.224,0.479H40.18
			C40.196,50.918,40.263,50.698,40.38,50.521z M42.624,52.125c-0.072,0.023-0.149,0.044-0.231,0.06
			c-0.083,0.017-0.17,0.029-0.261,0.04s-0.181,0.024-0.271,0.04c-0.086,0.017-0.17,0.037-0.252,0.064
			c-0.083,0.026-0.155,0.062-0.216,0.107c-0.062,0.046-0.111,0.104-0.148,0.172c-0.037,0.069-0.056,0.158-0.056,0.265
			c0,0.102,0.019,0.187,0.056,0.256s0.088,0.124,0.152,0.164c0.063,0.04,0.139,0.067,0.224,0.084
			c0.085,0.016,0.173,0.023,0.264,0.023c0.225,0,0.397-0.037,0.521-0.111c0.122-0.075,0.213-0.164,0.271-0.269
			c0.059-0.104,0.095-0.209,0.108-0.315s0.02-0.192,0.02-0.256v-0.425C42.756,52.068,42.696,52.101,42.624,52.125z"/>
		<path class="st8" d="M47.092,49.913v0.76H46.26v2.048c0,0.192,0.032,0.32,0.096,0.384c0.064,0.064,0.192,0.097,0.385,0.097
			c0.063,0,0.125-0.003,0.184-0.009c0.059-0.005,0.114-0.013,0.168-0.023v0.88c-0.096,0.016-0.202,0.026-0.32,0.032
			c-0.117,0.005-0.231,0.008-0.344,0.008c-0.176,0-0.343-0.012-0.5-0.036c-0.157-0.023-0.296-0.07-0.416-0.14
			s-0.215-0.168-0.284-0.296s-0.104-0.296-0.104-0.504v-2.44h-0.688v-0.76h0.688v-1.24h1.136v1.24H47.092z"/>
		<path class="st8" d="M47.668,49.273v-0.936h1.136v0.936H47.668z M48.804,49.913v4.136h-1.136v-4.136H48.804z"/>
		<path class="st8" d="M50.724,54.049l-1.416-4.136H50.5l0.872,2.824h0.016l0.872-2.824h1.128l-1.399,4.136H50.724z"/>
		<path class="st8" d="M55.075,53.057c0.171,0.166,0.416,0.248,0.736,0.248c0.229,0,0.427-0.057,0.592-0.172
			c0.165-0.114,0.267-0.236,0.304-0.364h1c-0.159,0.496-0.405,0.851-0.735,1.064c-0.331,0.213-0.73,0.319-1.2,0.319
			c-0.325,0-0.619-0.052-0.88-0.155c-0.262-0.104-0.482-0.252-0.664-0.444s-0.321-0.421-0.42-0.688s-0.148-0.561-0.148-0.881
			c0-0.309,0.051-0.597,0.152-0.863s0.245-0.497,0.432-0.692c0.187-0.194,0.409-0.348,0.668-0.46s0.546-0.168,0.86-0.168
			c0.352,0,0.658,0.068,0.92,0.204s0.477,0.318,0.645,0.548s0.289,0.491,0.363,0.784c0.075,0.293,0.102,0.6,0.08,0.92h-2.983
			C54.812,52.625,54.904,52.892,55.075,53.057z M56.359,50.881c-0.136-0.149-0.343-0.224-0.62-0.224
			c-0.181,0-0.332,0.03-0.452,0.092c-0.119,0.062-0.216,0.137-0.288,0.228c-0.071,0.091-0.122,0.188-0.151,0.288
			c-0.029,0.102-0.047,0.192-0.052,0.272h1.848C56.59,51.249,56.495,51.031,56.359,50.881z"/>
		<path class="st8" d="M60.739,50.03c0.128-0.365,0.312-0.685,0.552-0.956c0.24-0.272,0.535-0.485,0.885-0.641
			c0.349-0.154,0.742-0.231,1.18-0.231c0.442,0,0.837,0.077,1.184,0.231c0.347,0.155,0.641,0.368,0.88,0.641
			c0.24,0.271,0.425,0.591,0.553,0.956s0.191,0.761,0.191,1.188c0,0.416-0.063,0.804-0.191,1.164s-0.312,0.674-0.553,0.94
			c-0.239,0.267-0.533,0.476-0.88,0.628c-0.347,0.151-0.741,0.228-1.184,0.228c-0.438,0-0.831-0.076-1.18-0.228
			c-0.35-0.152-0.645-0.361-0.885-0.628c-0.239-0.267-0.424-0.58-0.552-0.94s-0.191-0.748-0.191-1.164
			C60.548,50.79,60.611,50.395,60.739,50.03z M61.888,51.917c0.056,0.227,0.145,0.431,0.268,0.612
			c0.123,0.181,0.283,0.326,0.48,0.436s0.437,0.164,0.72,0.164c0.282,0,0.522-0.055,0.72-0.164c0.197-0.109,0.357-0.255,0.48-0.436
			c0.122-0.182,0.212-0.386,0.268-0.612c0.057-0.227,0.084-0.46,0.084-0.7c0-0.251-0.027-0.493-0.084-0.728
			c-0.056-0.235-0.146-0.444-0.268-0.629c-0.123-0.184-0.283-0.33-0.48-0.439c-0.197-0.109-0.437-0.164-0.72-0.164
			c-0.283,0-0.522,0.055-0.72,0.164s-0.357,0.256-0.48,0.439c-0.123,0.185-0.212,0.394-0.268,0.629
			c-0.057,0.234-0.084,0.477-0.084,0.728C61.804,51.457,61.831,51.691,61.888,51.917z"/>
		<path class="st8" d="M67.979,52.641c0.069,0.134,0.161,0.241,0.276,0.324c0.114,0.083,0.249,0.144,0.403,0.184
			c0.155,0.04,0.315,0.061,0.48,0.061c0.112,0,0.231-0.01,0.36-0.028c0.128-0.019,0.247-0.055,0.359-0.107
			c0.112-0.054,0.205-0.127,0.28-0.221c0.074-0.093,0.112-0.212,0.112-0.355c0-0.155-0.05-0.28-0.148-0.376
			c-0.099-0.097-0.228-0.176-0.388-0.24s-0.342-0.12-0.544-0.168c-0.203-0.048-0.408-0.102-0.616-0.16
			c-0.214-0.053-0.422-0.118-0.624-0.196c-0.203-0.077-0.384-0.177-0.544-0.3c-0.16-0.122-0.289-0.275-0.388-0.46
			c-0.1-0.184-0.148-0.406-0.148-0.668c0-0.293,0.062-0.548,0.188-0.764c0.126-0.216,0.29-0.396,0.492-0.54
			c0.203-0.145,0.433-0.251,0.688-0.32s0.512-0.104,0.768-0.104c0.299,0,0.586,0.033,0.86,0.1s0.519,0.175,0.731,0.324
			c0.214,0.149,0.383,0.34,0.509,0.572c0.125,0.231,0.188,0.513,0.188,0.844H70.06c-0.011-0.171-0.047-0.312-0.108-0.424
			c-0.061-0.112-0.143-0.2-0.243-0.265c-0.102-0.063-0.218-0.109-0.349-0.136s-0.273-0.04-0.428-0.04
			c-0.102,0-0.203,0.011-0.304,0.032c-0.102,0.021-0.193,0.059-0.276,0.112c-0.083,0.053-0.15,0.119-0.204,0.199
			s-0.08,0.182-0.08,0.305c0,0.111,0.021,0.202,0.064,0.271c0.042,0.069,0.126,0.134,0.252,0.192
			c0.125,0.059,0.299,0.117,0.52,0.176c0.222,0.059,0.511,0.134,0.868,0.224c0.106,0.021,0.255,0.061,0.444,0.116
			c0.188,0.056,0.377,0.146,0.563,0.269c0.187,0.122,0.349,0.286,0.484,0.491c0.136,0.206,0.204,0.469,0.204,0.788
			c0,0.262-0.051,0.504-0.152,0.729c-0.102,0.224-0.252,0.417-0.452,0.58c-0.2,0.162-0.447,0.289-0.744,0.38
			c-0.296,0.091-0.639,0.136-1.027,0.136c-0.315,0-0.62-0.039-0.916-0.116s-0.558-0.198-0.784-0.363
			c-0.227-0.166-0.407-0.376-0.54-0.633c-0.134-0.256-0.197-0.56-0.192-0.912h1.217C67.876,52.345,67.91,52.508,67.979,52.641z"/>
		<path class="st8" d="M74.491,51.377v0.976h-2.408v-0.976H74.491z"/>
		<path class="st8" d="M75.027,48.337h1.456l1.12,1.824l1.16-1.824h1.376l-1.832,2.728l1.991,2.984h-1.495l-1.248-1.976
			l-1.272,1.976h-1.408l1.992-2.992L75.027,48.337z"/>
		<path class="st8" d="M34.452,60.12c0.117-0.176,0.267-0.317,0.448-0.424c0.181-0.106,0.385-0.183,0.611-0.228
			c0.227-0.046,0.455-0.068,0.685-0.068c0.208,0,0.418,0.015,0.632,0.044c0.213,0.029,0.408,0.087,0.584,0.172
			c0.176,0.086,0.319,0.204,0.432,0.356c0.112,0.151,0.168,0.354,0.168,0.604v2.152c0,0.187,0.011,0.365,0.032,0.536
			s0.059,0.299,0.112,0.384h-1.152c-0.021-0.064-0.039-0.129-0.052-0.196c-0.014-0.066-0.023-0.135-0.028-0.204
			c-0.182,0.188-0.395,0.317-0.64,0.393c-0.246,0.074-0.496,0.111-0.752,0.111c-0.197,0-0.382-0.023-0.553-0.071
			c-0.17-0.048-0.319-0.123-0.447-0.225c-0.128-0.101-0.229-0.229-0.301-0.384c-0.071-0.154-0.107-0.339-0.107-0.552
			c0-0.234,0.041-0.428,0.124-0.58c0.082-0.152,0.189-0.273,0.32-0.364c0.13-0.091,0.279-0.158,0.447-0.204
			c0.168-0.045,0.338-0.081,0.508-0.107c0.171-0.026,0.339-0.048,0.505-0.064c0.165-0.016,0.312-0.04,0.439-0.071
			c0.128-0.032,0.229-0.079,0.304-0.141c0.075-0.062,0.109-0.15,0.104-0.268c0-0.123-0.021-0.221-0.06-0.292
			c-0.04-0.072-0.094-0.128-0.16-0.168c-0.067-0.04-0.145-0.067-0.232-0.08c-0.088-0.014-0.183-0.021-0.284-0.021
			c-0.224,0-0.399,0.048-0.527,0.145c-0.128,0.096-0.203,0.256-0.225,0.479h-1.136C34.268,60.518,34.335,60.297,34.452,60.12z
			 M36.696,61.725c-0.072,0.023-0.149,0.044-0.232,0.06c-0.083,0.017-0.169,0.029-0.26,0.04s-0.182,0.024-0.272,0.04
			c-0.085,0.017-0.169,0.037-0.252,0.064c-0.082,0.026-0.154,0.062-0.216,0.107c-0.062,0.046-0.11,0.104-0.147,0.172
			c-0.038,0.069-0.057,0.158-0.057,0.265c0,0.102,0.019,0.187,0.057,0.256c0.037,0.069,0.088,0.124,0.151,0.164
			c0.064,0.04,0.139,0.067,0.225,0.084C35.777,62.992,35.865,63,35.956,63c0.224,0,0.397-0.037,0.52-0.111
			c0.123-0.075,0.214-0.164,0.272-0.269c0.059-0.104,0.095-0.209,0.107-0.315c0.014-0.106,0.021-0.192,0.021-0.256v-0.425
			C36.828,61.667,36.768,61.701,36.696,61.725z"/>
		<path class="st8" d="M39.972,59.513v0.527h0.016c0.139-0.224,0.315-0.386,0.528-0.487s0.448-0.152,0.704-0.152
			c0.325,0,0.605,0.062,0.84,0.184c0.234,0.123,0.43,0.286,0.584,0.488c0.155,0.203,0.27,0.438,0.344,0.708
			c0.075,0.27,0.112,0.551,0.112,0.844c0,0.277-0.037,0.544-0.112,0.801c-0.074,0.256-0.188,0.482-0.34,0.68
			c-0.151,0.197-0.341,0.354-0.567,0.472c-0.228,0.117-0.492,0.176-0.796,0.176c-0.257,0-0.492-0.052-0.708-0.155
			c-0.217-0.104-0.394-0.258-0.532-0.46h-0.017v1.96h-1.136v-5.584H39.972z M41.447,62.792c0.126-0.074,0.228-0.172,0.305-0.292
			c0.077-0.119,0.132-0.26,0.164-0.42c0.031-0.159,0.048-0.322,0.048-0.487c0-0.166-0.018-0.328-0.052-0.488
			c-0.035-0.16-0.093-0.303-0.173-0.428c-0.079-0.126-0.183-0.227-0.308-0.305c-0.125-0.077-0.278-0.115-0.46-0.115
			c-0.187,0-0.343,0.038-0.468,0.115c-0.126,0.078-0.227,0.178-0.304,0.301c-0.078,0.122-0.133,0.264-0.164,0.424
			c-0.032,0.16-0.049,0.325-0.049,0.496c0,0.165,0.018,0.328,0.053,0.487c0.034,0.16,0.09,0.301,0.168,0.42
			c0.077,0.12,0.18,0.218,0.308,0.292c0.128,0.075,0.283,0.112,0.464,0.112C41.166,62.905,41.322,62.867,41.447,62.792z"/>
		<path class="st8" d="M44.86,59.513v0.527h0.016c0.139-0.224,0.314-0.386,0.528-0.487c0.213-0.102,0.447-0.152,0.703-0.152
			c0.326,0,0.605,0.062,0.841,0.184c0.234,0.123,0.429,0.286,0.584,0.488c0.154,0.203,0.269,0.438,0.344,0.708
			c0.074,0.27,0.112,0.551,0.112,0.844c0,0.277-0.038,0.544-0.112,0.801c-0.075,0.256-0.188,0.482-0.34,0.68
			c-0.152,0.197-0.342,0.354-0.568,0.472s-0.492,0.176-0.796,0.176c-0.256,0-0.492-0.052-0.708-0.155
			c-0.216-0.104-0.394-0.258-0.532-0.46h-0.016v1.96H43.78v-5.584H44.86z M46.336,62.792c0.125-0.074,0.227-0.172,0.304-0.292
			c0.077-0.119,0.132-0.26,0.164-0.42c0.032-0.159,0.048-0.322,0.048-0.487c0-0.166-0.017-0.328-0.052-0.488
			c-0.034-0.16-0.092-0.303-0.172-0.428c-0.08-0.126-0.183-0.227-0.308-0.305c-0.126-0.077-0.279-0.115-0.46-0.115
			c-0.188,0-0.343,0.038-0.469,0.115c-0.125,0.078-0.227,0.178-0.304,0.301c-0.077,0.122-0.132,0.264-0.164,0.424
			s-0.048,0.325-0.048,0.496c0,0.165,0.018,0.328,0.052,0.487c0.035,0.16,0.091,0.301,0.168,0.42
			c0.077,0.12,0.181,0.218,0.309,0.292c0.128,0.075,0.282,0.112,0.464,0.112C46.055,62.905,46.211,62.867,46.336,62.792z"/>
		<path class="st8" d="M49.836,57.937v5.712h-1.137v-5.712H49.836z"/>
		<path class="st8" d="M50.764,58.872v-0.936h1.136v0.936H50.764z M51.899,59.513v4.136h-1.136v-4.136H51.899z"/>
		<path class="st8" d="M54.771,60.257c-0.182,0-0.333,0.041-0.456,0.124c-0.123,0.082-0.223,0.188-0.3,0.319
			s-0.132,0.275-0.164,0.433s-0.048,0.313-0.048,0.468c0,0.149,0.016,0.301,0.048,0.456c0.032,0.154,0.084,0.295,0.156,0.42
			c0.071,0.125,0.169,0.228,0.292,0.308c0.122,0.08,0.271,0.12,0.447,0.12c0.272,0,0.481-0.076,0.629-0.228
			c0.146-0.152,0.238-0.356,0.275-0.612h1.096c-0.074,0.55-0.287,0.968-0.64,1.256c-0.352,0.288-0.803,0.432-1.352,0.432
			c-0.31,0-0.594-0.052-0.853-0.155c-0.259-0.104-0.479-0.249-0.66-0.437c-0.181-0.187-0.322-0.409-0.424-0.668
			s-0.151-0.542-0.151-0.852c0-0.32,0.046-0.617,0.14-0.893c0.093-0.274,0.23-0.512,0.412-0.712
			c0.181-0.199,0.402-0.355,0.664-0.468c0.261-0.112,0.56-0.168,0.896-0.168c0.245,0,0.481,0.032,0.708,0.096
			c0.227,0.064,0.43,0.162,0.608,0.292c0.179,0.131,0.324,0.294,0.436,0.488c0.112,0.194,0.177,0.426,0.192,0.692h-1.112
			C55.537,60.494,55.257,60.257,54.771,60.257z"/>
		<path class="st8" d="M57.539,60.12c0.117-0.176,0.267-0.317,0.448-0.424s0.386-0.183,0.612-0.228
			c0.227-0.046,0.454-0.068,0.684-0.068c0.208,0,0.419,0.015,0.632,0.044c0.214,0.029,0.408,0.087,0.584,0.172
			c0.177,0.086,0.32,0.204,0.433,0.356c0.111,0.151,0.168,0.354,0.168,0.604v2.152c0,0.187,0.011,0.365,0.031,0.536
			c0.021,0.171,0.06,0.299,0.112,0.384h-1.151c-0.021-0.064-0.039-0.129-0.053-0.196c-0.013-0.066-0.022-0.135-0.027-0.204
			c-0.182,0.188-0.396,0.317-0.641,0.393c-0.245,0.074-0.496,0.111-0.752,0.111c-0.197,0-0.381-0.023-0.552-0.071
			s-0.32-0.123-0.448-0.225c-0.128-0.101-0.228-0.229-0.3-0.384c-0.072-0.154-0.108-0.339-0.108-0.552
			c0-0.234,0.042-0.428,0.124-0.58c0.083-0.152,0.189-0.273,0.32-0.364s0.28-0.158,0.448-0.204c0.168-0.045,0.337-0.081,0.508-0.107
			s0.339-0.048,0.504-0.064c0.165-0.016,0.312-0.04,0.44-0.071c0.128-0.032,0.229-0.079,0.304-0.141
			c0.074-0.062,0.109-0.15,0.104-0.268c0-0.123-0.02-0.221-0.06-0.292c-0.04-0.072-0.094-0.128-0.16-0.168s-0.144-0.067-0.231-0.08
			c-0.089-0.014-0.184-0.021-0.284-0.021c-0.225,0-0.4,0.048-0.528,0.145c-0.128,0.096-0.203,0.256-0.224,0.479h-1.137
			C57.355,60.518,57.422,60.297,57.539,60.12z M59.783,61.725c-0.072,0.023-0.149,0.044-0.231,0.06
			c-0.083,0.017-0.17,0.029-0.261,0.04s-0.181,0.024-0.271,0.04c-0.086,0.017-0.17,0.037-0.252,0.064
			c-0.083,0.026-0.155,0.062-0.216,0.107c-0.062,0.046-0.111,0.104-0.148,0.172c-0.037,0.069-0.056,0.158-0.056,0.265
			c0,0.102,0.019,0.187,0.056,0.256s0.088,0.124,0.152,0.164c0.063,0.04,0.139,0.067,0.224,0.084C58.864,62.992,58.952,63,59.043,63
			c0.225,0,0.397-0.037,0.521-0.111c0.122-0.075,0.213-0.164,0.271-0.269c0.059-0.104,0.095-0.209,0.108-0.315
			s0.02-0.192,0.02-0.256v-0.425C59.915,61.667,59.855,61.701,59.783,61.725z"/>
		<path class="st8" d="M64.252,59.513v0.76H63.42v2.048c0,0.192,0.031,0.32,0.096,0.384c0.064,0.064,0.192,0.097,0.384,0.097
			c0.064,0,0.125-0.003,0.185-0.009c0.059-0.005,0.114-0.013,0.168-0.023v0.88c-0.097,0.016-0.203,0.026-0.32,0.032
			c-0.117,0.005-0.232,0.008-0.344,0.008c-0.177,0-0.343-0.012-0.5-0.036c-0.157-0.023-0.296-0.07-0.416-0.14
			s-0.215-0.168-0.284-0.296s-0.104-0.296-0.104-0.504v-2.44h-0.688v-0.76h0.688v-1.24h1.137v1.24H64.252z"/>
		<path class="st8" d="M64.827,58.872v-0.936h1.137v0.936H64.827z M65.964,59.513v4.136h-1.137v-4.136H65.964z"/>
		<path class="st8" d="M66.884,60.685c0.101-0.27,0.245-0.499,0.432-0.688c0.187-0.188,0.411-0.336,0.672-0.439
			c0.262-0.104,0.555-0.156,0.88-0.156s0.62,0.052,0.885,0.156c0.264,0.104,0.489,0.251,0.676,0.439
			c0.187,0.189,0.33,0.419,0.432,0.688s0.152,0.569,0.152,0.899c0,0.331-0.051,0.63-0.152,0.896s-0.245,0.495-0.432,0.684
			c-0.187,0.189-0.412,0.335-0.676,0.437c-0.265,0.102-0.56,0.151-0.885,0.151s-0.618-0.05-0.88-0.151
			c-0.261-0.102-0.485-0.247-0.672-0.437c-0.187-0.188-0.331-0.417-0.432-0.684c-0.102-0.267-0.152-0.565-0.152-0.896
			C66.731,61.254,66.782,60.954,66.884,60.685z M67.915,62.069c0.032,0.157,0.087,0.299,0.164,0.424
			c0.078,0.126,0.181,0.226,0.309,0.3c0.128,0.075,0.288,0.112,0.479,0.112c0.192,0,0.354-0.037,0.484-0.112
			c0.131-0.074,0.234-0.174,0.312-0.3c0.078-0.125,0.133-0.267,0.164-0.424c0.032-0.157,0.049-0.318,0.049-0.484
			c0-0.165-0.017-0.327-0.049-0.487c-0.031-0.16-0.086-0.302-0.164-0.424c-0.077-0.123-0.181-0.223-0.312-0.301
			c-0.131-0.077-0.292-0.115-0.484-0.115c-0.191,0-0.352,0.038-0.479,0.115c-0.128,0.078-0.23,0.178-0.309,0.301
			c-0.077,0.122-0.132,0.264-0.164,0.424c-0.031,0.16-0.048,0.322-0.048,0.487C67.867,61.75,67.884,61.911,67.915,62.069z"/>
		<path class="st8" d="M72.827,59.513v0.576h0.024c0.144-0.24,0.33-0.415,0.56-0.524s0.464-0.164,0.704-0.164
			c0.304,0,0.553,0.041,0.748,0.124c0.194,0.083,0.348,0.197,0.46,0.344c0.112,0.147,0.19,0.325,0.236,0.536
			c0.045,0.211,0.067,0.444,0.067,0.7v2.544h-1.136v-2.336c0-0.342-0.054-0.596-0.16-0.764s-0.296-0.252-0.567-0.252
			c-0.31,0-0.534,0.092-0.673,0.275c-0.139,0.185-0.208,0.487-0.208,0.908v2.168h-1.136v-4.136H72.827z"/>
		<path class="st8" d="M77.447,62.62c0.051,0.088,0.116,0.16,0.196,0.217c0.08,0.056,0.172,0.097,0.275,0.123
			c0.104,0.027,0.212,0.04,0.324,0.04c0.08,0,0.164-0.009,0.252-0.027s0.168-0.048,0.24-0.088s0.132-0.094,0.18-0.16
			s0.072-0.15,0.072-0.252c0-0.171-0.113-0.299-0.34-0.384c-0.227-0.086-0.543-0.171-0.948-0.257
			c-0.165-0.037-0.326-0.081-0.484-0.132c-0.157-0.051-0.297-0.117-0.42-0.2c-0.122-0.082-0.221-0.187-0.296-0.312
			c-0.074-0.125-0.111-0.278-0.111-0.46c0-0.267,0.052-0.485,0.155-0.656c0.104-0.171,0.241-0.305,0.412-0.404
			c0.171-0.099,0.363-0.168,0.576-0.208c0.213-0.039,0.432-0.06,0.656-0.06c0.224,0,0.441,0.021,0.651,0.064
			c0.211,0.042,0.399,0.114,0.564,0.216s0.303,0.235,0.412,0.403s0.175,0.381,0.196,0.637h-1.08
			c-0.017-0.219-0.099-0.367-0.248-0.444s-0.325-0.116-0.528-0.116c-0.063,0-0.134,0.004-0.208,0.013
			c-0.074,0.008-0.143,0.025-0.204,0.052s-0.113,0.065-0.156,0.116c-0.042,0.051-0.063,0.118-0.063,0.204
			c0,0.101,0.037,0.184,0.112,0.247c0.074,0.064,0.172,0.116,0.292,0.156c0.119,0.04,0.257,0.076,0.411,0.108
			c0.155,0.032,0.312,0.066,0.473,0.104c0.165,0.038,0.326,0.083,0.483,0.137c0.157,0.053,0.298,0.124,0.42,0.212
			c0.123,0.088,0.222,0.197,0.297,0.328c0.074,0.13,0.111,0.292,0.111,0.483c0,0.272-0.055,0.5-0.164,0.685
			c-0.109,0.184-0.252,0.332-0.428,0.443c-0.176,0.112-0.377,0.191-0.604,0.236c-0.228,0.045-0.458,0.067-0.692,0.067
			c-0.24,0-0.475-0.023-0.704-0.071s-0.434-0.128-0.612-0.24s-0.325-0.26-0.439-0.444c-0.115-0.184-0.178-0.414-0.188-0.691h1.08
			C77.371,62.427,77.396,62.533,77.447,62.62z"/>
	</g>
	<g>
		<path class="st8" d="M18.88,147.987c0.533,0,1.012,0.1,1.436,0.3s0.781,0.47,1.074,0.81c0.294,0.341,0.52,0.737,0.676,1.19
			c0.156,0.454,0.234,0.934,0.234,1.44c0,0.514-0.078,0.997-0.234,1.45s-0.382,0.85-0.676,1.19c-0.293,0.34-0.65,0.608-1.074,0.805
			s-0.902,0.295-1.436,0.295s-1.012-0.099-1.436-0.295c-0.423-0.196-0.781-0.465-1.074-0.805c-0.294-0.341-0.52-0.737-0.676-1.19
			s-0.234-0.937-0.234-1.45c0-0.507,0.078-0.986,0.234-1.44c0.156-0.453,0.382-0.85,0.676-1.19c0.293-0.34,0.651-0.609,1.074-0.81
			C17.868,148.086,18.347,147.987,18.88,147.987z M18.88,149.006c-0.38,0-0.709,0.077-0.984,0.23
			c-0.277,0.153-0.502,0.358-0.676,0.615s-0.302,0.548-0.385,0.875c-0.084,0.326-0.125,0.66-0.125,1s0.041,0.674,0.125,1
			c0.083,0.327,0.211,0.618,0.385,0.875s0.398,0.462,0.676,0.615c0.275,0.153,0.604,0.229,0.984,0.229
			c0.381,0,0.709-0.076,0.985-0.229s0.501-0.358,0.675-0.615s0.302-0.548,0.385-0.875c0.084-0.326,0.125-0.66,0.125-1
			s-0.041-0.674-0.125-1c-0.083-0.327-0.211-0.618-0.385-0.875s-0.398-0.462-0.675-0.615S19.261,149.006,18.88,149.006z"/>
		<path class="st8" d="M24.261,152.917c0,0.273,0.047,0.507,0.141,0.699c0.093,0.194,0.223,0.353,0.39,0.476s0.358,0.214,0.575,0.27
			c0.217,0.058,0.451,0.085,0.705,0.085c0.273,0,0.506-0.031,0.699-0.095s0.351-0.145,0.471-0.245c0.12-0.1,0.207-0.215,0.26-0.345
			c0.054-0.13,0.08-0.262,0.08-0.396c0-0.272-0.062-0.475-0.186-0.604c-0.123-0.13-0.258-0.222-0.404-0.275
			c-0.254-0.093-0.549-0.182-0.885-0.265c-0.337-0.083-0.752-0.191-1.246-0.325c-0.307-0.08-0.561-0.185-0.765-0.315
			c-0.203-0.13-0.364-0.274-0.485-0.435c-0.119-0.16-0.205-0.33-0.254-0.51c-0.051-0.181-0.076-0.363-0.076-0.551
			c0-0.359,0.076-0.671,0.226-0.935s0.349-0.481,0.595-0.655c0.247-0.174,0.527-0.302,0.84-0.385
			c0.314-0.084,0.631-0.125,0.951-0.125c0.373,0,0.725,0.048,1.055,0.145s0.62,0.242,0.87,0.436s0.448,0.432,0.595,0.715
			s0.221,0.611,0.221,0.985h-1.25c-0.034-0.46-0.19-0.785-0.471-0.976c-0.279-0.189-0.637-0.285-1.07-0.285
			c-0.146,0-0.297,0.016-0.449,0.045c-0.154,0.03-0.294,0.08-0.421,0.15c-0.126,0.07-0.231,0.165-0.315,0.285
			c-0.083,0.12-0.125,0.27-0.125,0.45c0,0.253,0.079,0.451,0.236,0.595c0.156,0.144,0.361,0.252,0.614,0.325
			c0.026,0.007,0.132,0.035,0.315,0.085s0.389,0.104,0.615,0.165c0.227,0.06,0.447,0.118,0.664,0.175s0.372,0.099,0.466,0.125
			c0.233,0.073,0.437,0.174,0.61,0.3c0.173,0.127,0.318,0.272,0.435,0.436s0.203,0.338,0.261,0.525
			c0.056,0.187,0.084,0.373,0.084,0.56c0,0.4-0.082,0.742-0.244,1.025c-0.164,0.283-0.379,0.515-0.646,0.695
			c-0.267,0.18-0.57,0.312-0.91,0.395c-0.341,0.083-0.687,0.125-1.04,0.125c-0.406,0-0.79-0.05-1.15-0.15
			c-0.359-0.1-0.674-0.253-0.939-0.46c-0.268-0.206-0.48-0.472-0.641-0.795s-0.244-0.705-0.25-1.145H24.261z"/>
		<path class="st8" d="M29.651,152.036h2.91v1.08h-2.91V152.036z"/>
		<path class="st8" d="M33.192,148.157h1.49l1.619,2.521l1.69-2.521h1.4l-2.36,3.44l2.53,3.7h-1.521l-1.779-2.73l-1.811,2.73h-1.43
			l2.529-3.7L33.192,148.157z"/>
		<path class="st8" d="M42.942,148.157h1.141v4.061l2.061-2.091h1.399l-1.979,1.9l2.17,3.271h-1.391l-1.58-2.511l-0.68,0.66v1.851
			h-1.141V148.157z"/>
		<path class="st8" d="M49.173,153.007c0,0.2,0.029,0.394,0.086,0.58s0.141,0.35,0.254,0.49c0.113,0.14,0.258,0.251,0.431,0.335
			c0.173,0.083,0.38,0.125,0.62,0.125c0.334,0,0.602-0.072,0.805-0.216c0.203-0.143,0.355-0.357,0.455-0.645h1.08
			c-0.06,0.28-0.163,0.53-0.31,0.75c-0.147,0.22-0.323,0.405-0.53,0.555c-0.207,0.15-0.438,0.264-0.695,0.341
			c-0.256,0.076-0.525,0.114-0.805,0.114c-0.406,0-0.767-0.066-1.08-0.199c-0.313-0.134-0.578-0.32-0.795-0.561
			s-0.381-0.526-0.49-0.86c-0.109-0.333-0.165-0.7-0.165-1.1c0-0.367,0.058-0.715,0.175-1.045s0.283-0.62,0.5-0.87
			s0.479-0.449,0.785-0.596s0.653-0.22,1.041-0.22c0.406,0,0.771,0.085,1.094,0.255c0.324,0.17,0.592,0.396,0.806,0.675
			c0.214,0.28,0.368,0.603,0.466,0.966c0.096,0.363,0.121,0.738,0.074,1.125H49.173z M51.833,152.257
			c-0.013-0.181-0.051-0.354-0.114-0.521c-0.063-0.166-0.15-0.312-0.261-0.435c-0.109-0.124-0.242-0.224-0.399-0.301
			c-0.157-0.076-0.332-0.114-0.524-0.114c-0.201,0-0.383,0.034-0.546,0.104s-0.304,0.167-0.42,0.29
			c-0.116,0.124-0.21,0.269-0.28,0.436c-0.07,0.166-0.108,0.347-0.115,0.54H51.833z"/>
		<path class="st8" d="M53.844,150.126h1.07v1h0.021c0.033-0.14,0.098-0.276,0.194-0.409c0.097-0.134,0.214-0.256,0.351-0.365
			c0.137-0.11,0.287-0.198,0.455-0.266c0.166-0.066,0.336-0.1,0.51-0.1c0.133,0,0.225,0.003,0.275,0.01
			c0.049,0.007,0.102,0.014,0.154,0.021v1.1c-0.08-0.013-0.162-0.024-0.245-0.035c-0.083-0.01-0.165-0.015-0.245-0.015
			c-0.193,0-0.375,0.038-0.545,0.115c-0.17,0.076-0.318,0.189-0.445,0.34s-0.227,0.335-0.3,0.555
			c-0.073,0.221-0.11,0.474-0.11,0.761v2.46h-1.14V150.126z"/>
		<path class="st8" d="M57.544,150.126h1.08v0.761l0.02,0.02c0.174-0.286,0.4-0.512,0.681-0.675s0.59-0.245,0.931-0.245
			c0.566,0,1.013,0.146,1.34,0.44c0.326,0.293,0.49,0.733,0.49,1.319v3.551h-1.141v-3.25c-0.014-0.407-0.1-0.702-0.26-0.886
			c-0.16-0.183-0.41-0.274-0.75-0.274c-0.193,0-0.367,0.034-0.521,0.104s-0.283,0.167-0.39,0.29c-0.107,0.124-0.19,0.269-0.25,0.436
			c-0.061,0.166-0.09,0.343-0.09,0.529v3.051h-1.141V150.126z"/>
		<path class="st8" d="M64.175,153.007c0,0.2,0.028,0.394,0.085,0.58s0.142,0.35,0.255,0.49c0.113,0.14,0.257,0.251,0.43,0.335
			c0.174,0.083,0.381,0.125,0.621,0.125c0.333,0,0.602-0.072,0.805-0.216c0.203-0.143,0.355-0.357,0.455-0.645h1.08
			c-0.061,0.28-0.164,0.53-0.311,0.75s-0.323,0.405-0.529,0.555c-0.207,0.15-0.439,0.264-0.695,0.341
			c-0.257,0.076-0.525,0.114-0.805,0.114c-0.407,0-0.768-0.066-1.08-0.199c-0.314-0.134-0.579-0.32-0.796-0.561
			c-0.216-0.24-0.38-0.526-0.489-0.86c-0.11-0.333-0.166-0.7-0.166-1.1c0-0.367,0.059-0.715,0.176-1.045
			c0.116-0.33,0.283-0.62,0.5-0.87s0.479-0.449,0.785-0.596s0.652-0.22,1.04-0.22c0.406,0,0.771,0.085,1.095,0.255
			s0.592,0.396,0.805,0.675c0.214,0.28,0.369,0.603,0.466,0.966s0.122,0.738,0.075,1.125H64.175z M66.835,152.257
			c-0.014-0.181-0.052-0.354-0.115-0.521c-0.062-0.166-0.15-0.312-0.26-0.435c-0.109-0.124-0.243-0.224-0.4-0.301
			c-0.156-0.076-0.332-0.114-0.524-0.114c-0.2,0-0.382,0.034-0.546,0.104c-0.163,0.07-0.303,0.167-0.42,0.29
			c-0.116,0.124-0.209,0.269-0.279,0.436c-0.07,0.166-0.109,0.347-0.115,0.54H66.835z"/>
		<path class="st8" d="M68.875,148.157h1.14v7.141h-1.14V148.157z"/>
		<path class="st8" d="M74.895,153.637c0.034,0.333,0.16,0.566,0.381,0.7c0.22,0.133,0.483,0.2,0.79,0.2
			c0.106,0,0.228-0.009,0.365-0.025c0.136-0.017,0.265-0.048,0.385-0.095s0.218-0.115,0.295-0.205s0.112-0.208,0.104-0.355
			c-0.006-0.146-0.06-0.267-0.159-0.359c-0.101-0.094-0.229-0.169-0.386-0.226c-0.156-0.057-0.334-0.104-0.535-0.145
			c-0.199-0.04-0.402-0.084-0.609-0.13c-0.213-0.047-0.418-0.104-0.615-0.171c-0.197-0.066-0.373-0.156-0.529-0.27
			c-0.157-0.113-0.282-0.259-0.375-0.436c-0.094-0.176-0.141-0.395-0.141-0.654c0-0.28,0.068-0.516,0.205-0.705
			c0.137-0.19,0.311-0.344,0.52-0.46c0.211-0.117,0.443-0.199,0.7-0.245c0.257-0.047,0.502-0.07,0.735-0.07
			c0.267,0,0.521,0.028,0.766,0.085c0.242,0.057,0.463,0.148,0.66,0.275c0.195,0.126,0.359,0.291,0.489,0.495
			c0.13,0.203,0.212,0.448,0.245,0.734h-1.189c-0.055-0.273-0.18-0.456-0.375-0.55c-0.197-0.094-0.422-0.14-0.676-0.14
			c-0.08,0-0.175,0.006-0.285,0.02c-0.109,0.014-0.213,0.038-0.311,0.075c-0.096,0.037-0.178,0.09-0.244,0.16
			c-0.066,0.069-0.1,0.161-0.1,0.274c0,0.141,0.048,0.254,0.145,0.341c0.098,0.086,0.225,0.158,0.381,0.215
			c0.158,0.057,0.336,0.104,0.537,0.145s0.408,0.084,0.622,0.13c0.207,0.047,0.411,0.104,0.612,0.171
			c0.2,0.066,0.379,0.156,0.536,0.27s0.284,0.257,0.382,0.43c0.096,0.174,0.145,0.387,0.145,0.641c0,0.307-0.07,0.566-0.21,0.78
			c-0.141,0.213-0.323,0.387-0.546,0.52c-0.225,0.134-0.473,0.23-0.747,0.29c-0.274,0.061-0.545,0.09-0.812,0.09
			c-0.328,0-0.631-0.036-0.908-0.109s-0.518-0.186-0.721-0.335c-0.204-0.15-0.365-0.337-0.481-0.561s-0.179-0.488-0.186-0.795
			H74.895z"/>
		<path class="st8" d="M79.257,150.126h1.08v0.7h0.02c0.16-0.3,0.384-0.515,0.67-0.645c0.287-0.131,0.598-0.195,0.931-0.195
			c0.406,0,0.762,0.071,1.065,0.215c0.303,0.144,0.555,0.34,0.754,0.59c0.201,0.25,0.351,0.542,0.451,0.875
			c0.1,0.334,0.149,0.69,0.149,1.07c0,0.347-0.045,0.684-0.135,1.011c-0.09,0.326-0.227,0.614-0.41,0.864
			c-0.184,0.251-0.415,0.45-0.694,0.601c-0.281,0.15-0.611,0.225-0.99,0.225c-0.168,0-0.334-0.015-0.5-0.045
			c-0.168-0.029-0.327-0.078-0.48-0.145c-0.154-0.066-0.295-0.151-0.426-0.255c-0.129-0.104-0.238-0.226-0.324-0.365h-0.021v2.58
			h-1.14V150.126z M83.237,152.717c0-0.233-0.03-0.46-0.09-0.681c-0.061-0.22-0.15-0.415-0.271-0.585s-0.271-0.307-0.45-0.41
			c-0.18-0.103-0.387-0.154-0.62-0.154c-0.479,0-0.842,0.166-1.085,0.5c-0.244,0.333-0.365,0.776-0.365,1.33
			c0,0.26,0.031,0.502,0.096,0.725c0.062,0.224,0.158,0.415,0.285,0.575c0.126,0.16,0.277,0.287,0.455,0.38
			c0.176,0.094,0.381,0.141,0.614,0.141c0.261,0,0.48-0.054,0.66-0.16c0.181-0.106,0.329-0.245,0.445-0.415s0.2-0.363,0.25-0.58
			S83.237,152.944,83.237,152.717z"/>
		<path class="st8" d="M89.668,154.147c0,0.141,0.019,0.24,0.056,0.3c0.035,0.061,0.107,0.091,0.215,0.091c0.033,0,0.072,0,0.119,0
			s0.101-0.007,0.16-0.021v0.79c-0.04,0.014-0.092,0.028-0.154,0.045c-0.064,0.017-0.129,0.032-0.195,0.045
			c-0.066,0.014-0.134,0.023-0.2,0.03c-0.067,0.007-0.124,0.01-0.17,0.01c-0.233,0-0.427-0.046-0.58-0.14s-0.253-0.257-0.3-0.49
			c-0.227,0.22-0.506,0.38-0.836,0.48c-0.33,0.1-0.648,0.149-0.955,0.149c-0.232,0-0.457-0.031-0.67-0.095s-0.401-0.156-0.564-0.28
			c-0.164-0.123-0.294-0.279-0.391-0.47s-0.145-0.411-0.145-0.665c0-0.32,0.059-0.58,0.175-0.78s0.271-0.356,0.46-0.47
			s0.403-0.195,0.641-0.245c0.236-0.05,0.475-0.089,0.715-0.115c0.207-0.04,0.402-0.068,0.59-0.085
			c0.187-0.017,0.352-0.045,0.495-0.085s0.257-0.102,0.34-0.185c0.083-0.084,0.125-0.209,0.125-0.375
			c0-0.147-0.034-0.267-0.104-0.36s-0.157-0.165-0.26-0.215c-0.104-0.051-0.219-0.084-0.346-0.101s-0.246-0.024-0.359-0.024
			c-0.32,0-0.584,0.066-0.791,0.199c-0.207,0.134-0.323,0.341-0.35,0.62h-1.141c0.021-0.333,0.1-0.609,0.24-0.83
			c0.141-0.22,0.318-0.396,0.535-0.529c0.217-0.134,0.461-0.227,0.734-0.28s0.555-0.08,0.841-0.08c0.253,0,0.503,0.026,0.75,0.08
			s0.468,0.14,0.665,0.26s0.355,0.275,0.475,0.465c0.121,0.19,0.181,0.422,0.181,0.695V154.147z M88.528,152.707
			c-0.174,0.113-0.387,0.182-0.641,0.204c-0.254,0.023-0.507,0.059-0.76,0.105c-0.12,0.02-0.237,0.049-0.351,0.085
			c-0.113,0.037-0.214,0.087-0.3,0.15c-0.087,0.063-0.155,0.146-0.205,0.25s-0.075,0.229-0.075,0.375
			c0,0.127,0.036,0.233,0.11,0.319c0.073,0.087,0.162,0.155,0.266,0.205c0.103,0.051,0.216,0.085,0.34,0.105
			c0.123,0.02,0.234,0.03,0.334,0.03c0.127,0,0.264-0.017,0.41-0.051c0.146-0.033,0.285-0.09,0.416-0.17
			c0.129-0.08,0.238-0.182,0.324-0.305c0.087-0.123,0.131-0.275,0.131-0.455V152.707z"/>
		<path class="st8" d="M94.388,151.857c-0.046-0.32-0.174-0.562-0.385-0.725c-0.209-0.164-0.475-0.245-0.795-0.245
			c-0.146,0-0.303,0.024-0.47,0.074c-0.167,0.051-0.32,0.144-0.46,0.28c-0.141,0.137-0.257,0.327-0.35,0.57
			c-0.094,0.243-0.141,0.562-0.141,0.955c0,0.214,0.025,0.427,0.075,0.64c0.05,0.214,0.13,0.404,0.239,0.57
			c0.11,0.167,0.252,0.302,0.426,0.405s0.383,0.155,0.63,0.155c0.333,0,0.608-0.104,0.825-0.311c0.217-0.206,0.352-0.496,0.404-0.87
			h1.141c-0.106,0.674-0.361,1.188-0.766,1.545c-0.402,0.357-0.938,0.535-1.604,0.535c-0.407,0-0.765-0.068-1.075-0.205
			c-0.311-0.136-0.572-0.323-0.785-0.56s-0.375-0.519-0.484-0.845c-0.11-0.327-0.166-0.681-0.166-1.061
			c0-0.387,0.054-0.75,0.16-1.09c0.107-0.341,0.268-0.636,0.48-0.886s0.479-0.446,0.795-0.59s0.688-0.215,1.115-0.215
			c0.3,0,0.585,0.038,0.855,0.115c0.27,0.076,0.51,0.191,0.72,0.345s0.382,0.347,0.515,0.58c0.134,0.233,0.214,0.51,0.24,0.83
			H94.388z"/>
		<path class="st8" d="M97.349,153.007c0,0.2,0.028,0.394,0.085,0.58s0.142,0.35,0.255,0.49c0.113,0.14,0.257,0.251,0.43,0.335
			c0.174,0.083,0.381,0.125,0.621,0.125c0.333,0,0.602-0.072,0.805-0.216c0.203-0.143,0.355-0.357,0.455-0.645h1.08
			c-0.061,0.28-0.164,0.53-0.311,0.75s-0.323,0.405-0.529,0.555c-0.207,0.15-0.439,0.264-0.695,0.341
			c-0.257,0.076-0.525,0.114-0.805,0.114c-0.407,0-0.768-0.066-1.08-0.199c-0.314-0.134-0.579-0.32-0.796-0.561
			c-0.216-0.24-0.38-0.526-0.489-0.86c-0.11-0.333-0.166-0.7-0.166-1.1c0-0.367,0.059-0.715,0.176-1.045
			c0.116-0.33,0.283-0.62,0.5-0.87s0.479-0.449,0.785-0.596s0.652-0.22,1.04-0.22c0.406,0,0.771,0.085,1.095,0.255
			s0.592,0.396,0.805,0.675c0.214,0.28,0.369,0.603,0.466,0.966s0.122,0.738,0.075,1.125H97.349z M100.009,152.257
			c-0.014-0.181-0.052-0.354-0.115-0.521c-0.062-0.166-0.15-0.312-0.26-0.435c-0.109-0.124-0.243-0.224-0.4-0.301
			c-0.156-0.076-0.332-0.114-0.524-0.114c-0.2,0-0.382,0.034-0.546,0.104c-0.163,0.07-0.303,0.167-0.42,0.29
			c-0.116,0.124-0.209,0.269-0.279,0.436c-0.07,0.166-0.109,0.347-0.115,0.54H100.009z"/>
	</g>
	<g>
		<path class="st4" d="M59.316,196.821h2.275l2.546,7.226h0.025l2.481-7.226h2.249v9.229h-1.538v-7.122H67.33l-2.56,7.122h-1.331
			l-2.559-7.122h-0.026v7.122h-1.538V196.821z"/>
		<path class="st4" d="M76.223,204.563c0,0.181,0.023,0.311,0.07,0.388c0.048,0.077,0.141,0.116,0.278,0.116
			c0.043,0,0.095,0,0.155,0c0.06,0,0.129-0.009,0.207-0.025v1.021c-0.052,0.018-0.119,0.037-0.201,0.059s-0.166,0.041-0.252,0.058
			c-0.086,0.018-0.172,0.03-0.258,0.039c-0.087,0.009-0.16,0.013-0.22,0.013c-0.302,0-0.552-0.061-0.75-0.181
			s-0.327-0.332-0.388-0.634c-0.293,0.285-0.652,0.491-1.079,0.621c-0.427,0.129-0.838,0.193-1.234,0.193
			c-0.302,0-0.591-0.041-0.866-0.122c-0.275-0.082-0.52-0.203-0.73-0.362s-0.379-0.362-0.504-0.607
			c-0.125-0.246-0.188-0.532-0.188-0.859c0-0.414,0.075-0.75,0.227-1.009c0.15-0.258,0.349-0.46,0.595-0.607
			c0.245-0.146,0.521-0.252,0.827-0.316c0.306-0.064,0.613-0.114,0.924-0.148c0.267-0.052,0.521-0.088,0.763-0.11
			c0.241-0.021,0.454-0.058,0.64-0.109s0.332-0.131,0.439-0.239c0.107-0.107,0.161-0.27,0.161-0.484
			c0-0.189-0.045-0.345-0.135-0.466c-0.091-0.12-0.203-0.213-0.337-0.277c-0.133-0.064-0.282-0.107-0.445-0.13
			c-0.164-0.021-0.319-0.032-0.466-0.032c-0.413,0-0.754,0.087-1.021,0.259c-0.268,0.173-0.418,0.439-0.452,0.802H70.51
			c0.025-0.431,0.129-0.789,0.31-1.073c0.182-0.284,0.412-0.513,0.691-0.685c0.28-0.173,0.597-0.293,0.95-0.362
			c0.354-0.068,0.716-0.104,1.086-0.104c0.327,0,0.65,0.035,0.97,0.104c0.318,0.069,0.604,0.181,0.859,0.336
			c0.254,0.155,0.459,0.355,0.613,0.602c0.155,0.245,0.233,0.545,0.233,0.897V204.563z M74.749,202.701
			c-0.225,0.146-0.5,0.235-0.827,0.265c-0.328,0.03-0.655,0.076-0.982,0.136c-0.155,0.026-0.306,0.063-0.452,0.11
			c-0.146,0.048-0.276,0.112-0.388,0.193c-0.112,0.082-0.2,0.19-0.266,0.323c-0.064,0.134-0.097,0.296-0.097,0.485
			c0,0.163,0.047,0.302,0.143,0.413c0.095,0.112,0.208,0.2,0.342,0.265c0.134,0.065,0.28,0.11,0.439,0.136
			c0.16,0.026,0.304,0.039,0.434,0.039c0.163,0,0.34-0.021,0.529-0.064s0.369-0.116,0.537-0.22s0.308-0.234,0.42-0.395
			c0.111-0.159,0.168-0.355,0.168-0.588V202.701z"/>
		<path class="st4" d="M82.322,201.603c-0.06-0.413-0.226-0.726-0.497-0.937c-0.271-0.212-0.614-0.317-1.027-0.317
			c-0.19,0-0.393,0.032-0.607,0.098c-0.216,0.064-0.414,0.185-0.595,0.361s-0.332,0.423-0.452,0.737
			c-0.121,0.314-0.182,0.726-0.182,1.234c0,0.275,0.032,0.551,0.098,0.827c0.064,0.275,0.168,0.521,0.31,0.736
			c0.143,0.216,0.325,0.39,0.55,0.523c0.224,0.134,0.495,0.2,0.813,0.2c0.432,0,0.787-0.134,1.066-0.4
			c0.28-0.268,0.455-0.642,0.523-1.125h1.474c-0.138,0.871-0.468,1.536-0.988,1.997c-0.521,0.461-1.213,0.691-2.075,0.691
			c-0.525,0-0.988-0.088-1.389-0.265c-0.401-0.177-0.739-0.418-1.015-0.724c-0.276-0.306-0.485-0.67-0.627-1.093
			c-0.143-0.422-0.214-0.879-0.214-1.369c0-0.5,0.069-0.97,0.207-1.409s0.345-0.821,0.621-1.144
			c0.275-0.323,0.618-0.577,1.027-0.763s0.89-0.278,1.44-0.278c0.388,0,0.757,0.05,1.105,0.148c0.349,0.1,0.659,0.248,0.931,0.446
			s0.493,0.448,0.666,0.75c0.172,0.302,0.275,0.659,0.31,1.072H82.322z"/>
		<path class="st4" d="M88.591,196.821h1.474v3.425h0.026c0.181-0.301,0.45-0.553,0.808-0.756c0.357-0.202,0.756-0.304,1.195-0.304
			c0.732,0,1.31,0.189,1.732,0.569c0.422,0.379,0.633,0.947,0.633,1.706v4.588h-1.474v-4.2c-0.018-0.525-0.129-0.907-0.336-1.145
			c-0.207-0.236-0.529-0.355-0.969-0.355c-0.25,0-0.475,0.046-0.673,0.136c-0.198,0.091-0.366,0.216-0.504,0.375
			s-0.245,0.347-0.323,0.562c-0.077,0.215-0.116,0.443-0.116,0.685v3.942h-1.474V196.821z"/>
		<path class="st4" d="M101.606,204.563c0,0.181,0.023,0.311,0.071,0.388c0.047,0.077,0.14,0.116,0.277,0.116
			c0.044,0,0.095,0,0.155,0s0.13-0.009,0.207-0.025v1.021c-0.052,0.018-0.118,0.037-0.2,0.059s-0.166,0.041-0.252,0.058
			c-0.086,0.018-0.173,0.03-0.259,0.039s-0.159,0.013-0.22,0.013c-0.302,0-0.552-0.061-0.749-0.181
			c-0.199-0.12-0.328-0.332-0.389-0.634c-0.293,0.285-0.652,0.491-1.079,0.621c-0.426,0.129-0.838,0.193-1.234,0.193
			c-0.302,0-0.59-0.041-0.865-0.122c-0.276-0.082-0.52-0.203-0.73-0.362s-0.38-0.362-0.504-0.607
			c-0.125-0.246-0.188-0.532-0.188-0.859c0-0.414,0.075-0.75,0.226-1.009c0.151-0.258,0.35-0.46,0.595-0.607
			c0.246-0.146,0.521-0.252,0.827-0.316s0.614-0.114,0.925-0.148c0.267-0.052,0.521-0.088,0.762-0.11
			c0.241-0.021,0.455-0.058,0.641-0.109c0.185-0.052,0.331-0.131,0.439-0.239c0.107-0.107,0.161-0.27,0.161-0.484
			c0-0.189-0.045-0.345-0.136-0.466c-0.091-0.12-0.202-0.213-0.336-0.277s-0.282-0.107-0.446-0.13
			c-0.163-0.021-0.318-0.032-0.465-0.032c-0.414,0-0.754,0.087-1.021,0.259c-0.267,0.173-0.418,0.439-0.452,0.802h-1.474
			c0.026-0.431,0.13-0.789,0.311-1.073s0.411-0.513,0.691-0.685c0.28-0.173,0.597-0.293,0.95-0.362
			c0.353-0.068,0.715-0.104,1.085-0.104c0.328,0,0.651,0.035,0.97,0.104c0.318,0.069,0.605,0.181,0.859,0.336
			s0.459,0.355,0.614,0.602c0.155,0.245,0.232,0.545,0.232,0.897V204.563z M100.133,202.701c-0.224,0.146-0.499,0.235-0.827,0.265
			c-0.327,0.03-0.654,0.076-0.982,0.136c-0.154,0.026-0.306,0.063-0.452,0.11c-0.146,0.048-0.275,0.112-0.388,0.193
			c-0.112,0.082-0.2,0.19-0.265,0.323c-0.064,0.134-0.097,0.296-0.097,0.485c0,0.163,0.047,0.302,0.142,0.413
			c0.095,0.112,0.209,0.2,0.343,0.265c0.134,0.065,0.28,0.11,0.439,0.136c0.159,0.026,0.304,0.039,0.433,0.039
			c0.164,0,0.341-0.021,0.53-0.064s0.368-0.116,0.536-0.22s0.309-0.234,0.42-0.395c0.112-0.159,0.168-0.355,0.168-0.588V202.701z"/>
		<path class="st4" d="M103.196,199.367h1.383v1.293h0.025c0.044-0.181,0.128-0.357,0.253-0.53c0.124-0.172,0.275-0.329,0.452-0.472
			c0.177-0.142,0.372-0.256,0.588-0.342c0.215-0.087,0.435-0.13,0.659-0.13c0.172,0,0.291,0.005,0.355,0.013
			c0.064,0.009,0.131,0.018,0.2,0.026v1.422c-0.104-0.018-0.209-0.032-0.316-0.046c-0.108-0.013-0.214-0.019-0.316-0.019
			c-0.25,0-0.485,0.049-0.705,0.148c-0.22,0.099-0.411,0.245-0.575,0.439c-0.163,0.193-0.293,0.433-0.388,0.717
			s-0.142,0.612-0.142,0.982v3.18h-1.474V199.367z"/>
		<path class="st4" d="M113.808,206.049h-1.396v-0.904h-0.025c-0.198,0.388-0.487,0.665-0.866,0.833s-0.779,0.252-1.202,0.252
			c-0.525,0-0.984-0.093-1.376-0.277c-0.393-0.186-0.718-0.438-0.976-0.757c-0.259-0.318-0.453-0.695-0.582-1.131
			c-0.129-0.435-0.194-0.902-0.194-1.402c0-0.603,0.082-1.124,0.246-1.563c0.163-0.439,0.381-0.802,0.652-1.086
			s0.582-0.493,0.931-0.627c0.35-0.133,0.705-0.2,1.066-0.2c0.207,0,0.418,0.02,0.634,0.059c0.215,0.038,0.422,0.102,0.62,0.188
			s0.381,0.195,0.549,0.329s0.309,0.291,0.421,0.472h0.025v-3.412h1.474V206.049z M108.663,202.78c0,0.284,0.037,0.564,0.11,0.84
			s0.185,0.521,0.336,0.736c0.15,0.216,0.343,0.388,0.575,0.518c0.232,0.129,0.508,0.193,0.827,0.193
			c0.327,0,0.609-0.068,0.847-0.207c0.236-0.138,0.431-0.318,0.581-0.542c0.151-0.225,0.263-0.477,0.336-0.757
			c0.073-0.279,0.11-0.566,0.11-0.859c0-0.741-0.166-1.318-0.498-1.731c-0.331-0.414-0.781-0.621-1.351-0.621
			c-0.345,0-0.635,0.071-0.872,0.214c-0.237,0.142-0.431,0.327-0.582,0.556c-0.15,0.229-0.258,0.486-0.322,0.775
			C108.695,202.183,108.663,202.478,108.663,202.78z"/>
		<path class="st4" d="M114.803,199.367h1.563l1.306,4.989h0.025l1.254-4.989h1.486l1.202,4.989h0.026l1.356-4.989h1.5l-2.095,6.683
			h-1.512l-1.241-4.963h-0.025l-1.228,4.963h-1.552L114.803,199.367z"/>
		<path class="st4" d="M131.062,204.563c0,0.181,0.023,0.311,0.07,0.388c0.048,0.077,0.141,0.116,0.278,0.116
			c0.043,0,0.095,0,0.155,0c0.06,0,0.129-0.009,0.207-0.025v1.021c-0.052,0.018-0.119,0.037-0.201,0.059s-0.166,0.041-0.252,0.058
			c-0.086,0.018-0.172,0.03-0.258,0.039c-0.087,0.009-0.16,0.013-0.22,0.013c-0.302,0-0.552-0.061-0.75-0.181
			s-0.327-0.332-0.388-0.634c-0.293,0.285-0.652,0.491-1.079,0.621c-0.427,0.129-0.838,0.193-1.234,0.193
			c-0.302,0-0.591-0.041-0.866-0.122c-0.275-0.082-0.52-0.203-0.73-0.362s-0.379-0.362-0.504-0.607
			c-0.125-0.246-0.188-0.532-0.188-0.859c0-0.414,0.075-0.75,0.227-1.009c0.15-0.258,0.349-0.46,0.595-0.607
			c0.245-0.146,0.521-0.252,0.827-0.316c0.306-0.064,0.613-0.114,0.924-0.148c0.267-0.052,0.521-0.088,0.763-0.11
			c0.241-0.021,0.454-0.058,0.64-0.109s0.332-0.131,0.439-0.239c0.107-0.107,0.161-0.27,0.161-0.484
			c0-0.189-0.045-0.345-0.135-0.466c-0.091-0.12-0.203-0.213-0.337-0.277c-0.133-0.064-0.282-0.107-0.445-0.13
			c-0.164-0.021-0.319-0.032-0.466-0.032c-0.413,0-0.754,0.087-1.021,0.259c-0.268,0.173-0.418,0.439-0.452,0.802h-1.474
			c0.025-0.431,0.129-0.789,0.31-1.073c0.182-0.284,0.412-0.513,0.691-0.685c0.28-0.173,0.597-0.293,0.95-0.362
			c0.354-0.068,0.716-0.104,1.086-0.104c0.327,0,0.65,0.035,0.97,0.104c0.318,0.069,0.604,0.181,0.859,0.336
			c0.254,0.155,0.459,0.355,0.613,0.602c0.155,0.245,0.233,0.545,0.233,0.897V204.563z M129.589,202.701
			c-0.225,0.146-0.5,0.235-0.827,0.265c-0.328,0.03-0.655,0.076-0.982,0.136c-0.155,0.026-0.306,0.063-0.452,0.11
			c-0.146,0.048-0.276,0.112-0.388,0.193c-0.112,0.082-0.2,0.19-0.266,0.323c-0.064,0.134-0.097,0.296-0.097,0.485
			c0,0.163,0.047,0.302,0.143,0.413c0.095,0.112,0.208,0.2,0.342,0.265c0.134,0.065,0.28,0.11,0.439,0.136
			c0.16,0.026,0.304,0.039,0.434,0.039c0.163,0,0.34-0.021,0.529-0.064s0.369-0.116,0.537-0.22s0.308-0.234,0.42-0.395
			c0.111-0.159,0.168-0.355,0.168-0.588V202.701z"/>
		<path class="st4" d="M132.651,199.367h1.384v1.293h0.025c0.043-0.181,0.127-0.357,0.252-0.53c0.125-0.172,0.275-0.329,0.452-0.472
			c0.177-0.142,0.373-0.256,0.588-0.342c0.216-0.087,0.436-0.13,0.659-0.13c0.173,0,0.291,0.005,0.355,0.013
			c0.065,0.009,0.132,0.018,0.201,0.026v1.422c-0.104-0.018-0.209-0.032-0.317-0.046c-0.107-0.013-0.213-0.019-0.316-0.019
			c-0.25,0-0.484,0.049-0.704,0.148c-0.22,0.099-0.412,0.245-0.575,0.439c-0.164,0.193-0.293,0.433-0.388,0.717
			s-0.143,0.612-0.143,0.982v3.18h-1.474V199.367z"/>
		<path class="st4" d="M138.119,203.089c0,0.259,0.036,0.509,0.109,0.75s0.184,0.452,0.33,0.633
			c0.146,0.182,0.331,0.325,0.556,0.434c0.224,0.107,0.491,0.161,0.801,0.161c0.432,0,0.778-0.093,1.041-0.277
			c0.263-0.186,0.459-0.464,0.588-0.834h1.396c-0.077,0.362-0.211,0.685-0.4,0.97c-0.189,0.284-0.418,0.523-0.685,0.717
			c-0.268,0.194-0.567,0.341-0.898,0.439c-0.332,0.099-0.679,0.148-1.041,0.148c-0.525,0-0.99-0.086-1.396-0.258
			c-0.405-0.173-0.748-0.414-1.027-0.725c-0.28-0.31-0.491-0.68-0.634-1.111c-0.142-0.431-0.213-0.904-0.213-1.422
			c0-0.474,0.075-0.924,0.227-1.351c0.15-0.426,0.366-0.801,0.646-1.124c0.28-0.323,0.618-0.579,1.015-0.77
			c0.396-0.189,0.845-0.284,1.345-0.284c0.525,0,0.997,0.11,1.415,0.33s0.765,0.51,1.04,0.872c0.276,0.362,0.477,0.777,0.602,1.247
			s0.157,0.955,0.097,1.454H138.119z M141.557,202.12c-0.017-0.233-0.066-0.457-0.148-0.673c-0.082-0.215-0.193-0.402-0.336-0.562
			c-0.143-0.16-0.314-0.289-0.517-0.388c-0.203-0.1-0.429-0.149-0.679-0.149c-0.259,0-0.493,0.046-0.705,0.136
			c-0.211,0.091-0.392,0.216-0.542,0.375c-0.151,0.159-0.271,0.347-0.362,0.562c-0.091,0.215-0.141,0.448-0.148,0.698H141.557z"/>
		<path class="st4" d="M149.468,208.518c-0.259-0.414-0.502-0.84-0.73-1.279s-0.427-0.903-0.595-1.39
			c-0.168-0.487-0.3-1.002-0.395-1.545s-0.142-1.124-0.142-1.744c0-1.043,0.161-2.068,0.484-3.076
			c0.323-1.009,0.782-1.969,1.377-2.883h1.201c-0.517,0.931-0.911,1.885-1.183,2.863c-0.271,0.978-0.406,2.01-0.406,3.096
			c0,1.085,0.129,2.119,0.388,3.102c0.258,0.982,0.659,1.935,1.201,2.856H149.468z"/>
		<path class="st4" d="M153.138,202.534l-2.313-3.167h1.783l1.396,2.056l1.46-2.056h1.706l-2.274,3.09l2.56,3.593h-1.771
			l-1.692-2.469l-1.642,2.469h-1.732L153.138,202.534z"/>
		<path class="st4" d="M161.1,206.23c-0.457,0-0.882-0.064-1.273-0.193c-0.393-0.13-0.73-0.316-1.015-0.562
			c-0.284-0.245-0.506-0.545-0.666-0.898c-0.159-0.353-0.238-0.749-0.238-1.188c0-0.569,0.148-1.047,0.445-1.436
			c0.298-0.388,0.7-0.646,1.209-0.775v-0.025c-0.414-0.155-0.73-0.395-0.95-0.718s-0.33-0.704-0.33-1.144
			c0-0.775,0.244-1.381,0.73-1.815c0.487-0.436,1.183-0.653,2.088-0.653c0.904,0,1.6,0.218,2.087,0.653
			c0.486,0.435,0.73,1.04,0.73,1.815c0,0.439-0.11,0.82-0.33,1.144s-0.536,0.562-0.949,0.718v0.025
			c0.508,0.13,0.911,0.388,1.208,0.775c0.297,0.389,0.446,0.866,0.446,1.436c0,0.439-0.08,0.836-0.239,1.188
			c-0.16,0.354-0.382,0.653-0.666,0.898c-0.284,0.246-0.622,0.433-1.015,0.562C161.98,206.165,161.556,206.23,161.1,206.23z
			 M161.1,205.067c0.491,0,0.9-0.146,1.228-0.439s0.491-0.706,0.491-1.24c0-0.5-0.164-0.89-0.491-1.17s-0.736-0.42-1.228-0.42
			s-0.901,0.14-1.229,0.42s-0.491,0.67-0.491,1.17c0,0.534,0.164,0.947,0.491,1.24S160.608,205.067,161.1,205.067z M161.1,197.984
			c-0.396,0-0.732,0.119-1.009,0.355c-0.275,0.237-0.413,0.58-0.413,1.027c0,0.432,0.133,0.761,0.4,0.989
			c0.267,0.229,0.607,0.343,1.021,0.343c0.413,0,0.754-0.114,1.021-0.343c0.268-0.229,0.4-0.558,0.4-0.989
			c0-0.447-0.138-0.79-0.413-1.027C161.831,198.103,161.495,197.984,161.1,197.984z"/>
		<path class="st4" d="M169.798,199.289c-0.034-0.37-0.166-0.67-0.395-0.898c-0.228-0.228-0.536-0.343-0.924-0.343
			c-0.267,0-0.497,0.05-0.691,0.149c-0.193,0.099-0.357,0.23-0.491,0.394c-0.134,0.164-0.241,0.352-0.323,0.562
			s-0.148,0.433-0.2,0.666c-0.052,0.232-0.088,0.463-0.109,0.691c-0.022,0.229-0.041,0.441-0.059,0.64l0.026,0.025
			c0.197-0.361,0.472-0.631,0.82-0.808s0.726-0.265,1.131-0.265c0.448,0,0.849,0.077,1.202,0.232s0.652,0.368,0.898,0.64
			c0.245,0.271,0.433,0.593,0.562,0.963c0.13,0.371,0.194,0.771,0.194,1.202c0,0.439-0.071,0.847-0.213,1.222
			c-0.143,0.375-0.348,0.702-0.614,0.982c-0.268,0.28-0.586,0.497-0.956,0.652c-0.371,0.155-0.78,0.232-1.229,0.232
			c-0.663,0-1.208-0.122-1.635-0.368c-0.427-0.245-0.763-0.581-1.008-1.008c-0.246-0.427-0.416-0.927-0.511-1.5
			c-0.095-0.572-0.143-1.19-0.143-1.854c0-0.543,0.059-1.09,0.175-1.642c0.116-0.551,0.308-1.053,0.575-1.505
			c0.267-0.453,0.618-0.821,1.054-1.105c0.435-0.284,0.971-0.427,1.608-0.427c0.362,0,0.702,0.061,1.021,0.181
			c0.318,0.121,0.601,0.289,0.847,0.505c0.245,0.215,0.445,0.474,0.601,0.775s0.241,0.638,0.259,1.008H169.798z M168.376,205.002
			c0.268,0,0.5-0.054,0.698-0.161c0.198-0.108,0.364-0.248,0.497-0.421c0.134-0.172,0.233-0.372,0.298-0.601
			s0.097-0.463,0.097-0.704s-0.032-0.475-0.097-0.698s-0.164-0.42-0.298-0.588c-0.133-0.168-0.299-0.304-0.497-0.407
			s-0.431-0.155-0.698-0.155c-0.267,0-0.502,0.05-0.704,0.148c-0.202,0.1-0.373,0.232-0.511,0.401
			c-0.138,0.168-0.241,0.363-0.31,0.588c-0.069,0.224-0.104,0.461-0.104,0.711s0.034,0.486,0.104,0.711
			c0.068,0.224,0.172,0.424,0.31,0.601s0.309,0.316,0.511,0.42S168.109,205.002,168.376,205.002z"/>
		<path class="st4" d="M172.978,196.601c0.258,0.414,0.499,0.843,0.724,1.286c0.224,0.444,0.42,0.909,0.588,1.396
			c0.168,0.487,0.302,1.002,0.4,1.545c0.1,0.543,0.149,1.124,0.149,1.745c0,1.042-0.162,2.067-0.485,3.076
			c-0.323,1.008-0.781,1.964-1.376,2.869h-1.202c0.517-0.922,0.911-1.872,1.183-2.85c0.271-0.979,0.407-2.01,0.407-3.096
			s-0.13-2.12-0.388-3.103c-0.259-0.982-0.659-1.938-1.202-2.869H172.978z"/>
	</g>
	<g>
		<path class="st9" d="M43.517,106.408c-6.811,0-12.352-5.541-12.352-12.353c0-6.811,5.541-12.352,12.352-12.352
			c6.812,0,12.353,5.541,12.353,12.352C55.869,100.867,50.328,106.408,43.517,106.408z M43.517,82.703
			c-6.259,0-11.352,5.093-11.352,11.352c0,6.26,5.093,11.353,11.352,11.353c6.26,0,11.353-5.093,11.353-11.353
			C54.869,87.796,49.776,82.703,43.517,82.703z"/>
	</g>
	<g>
		<path class="st9" d="M44.337,90.308l2.671,7.141h-1.631l-0.54-1.59h-2.67l-0.561,1.59h-1.58l2.7-7.141H44.337z M44.427,94.688
			l-0.899-2.62h-0.021l-0.93,2.62H44.427z"/>
	</g>
	<g>
		<path class="st9" d="M73.361,106.408c-6.812,0-12.353-5.541-12.353-12.353c0-6.811,5.541-12.352,12.353-12.352
			s12.353,5.541,12.353,12.352C85.714,100.867,80.173,106.408,73.361,106.408z M73.361,82.703c-6.26,0-11.353,5.093-11.353,11.352
			c0,6.26,5.093,11.353,11.353,11.353s11.353-5.093,11.353-11.353C84.714,87.796,79.621,82.703,73.361,82.703z"/>
	</g>
	<g>
		<path class="st9" d="M74.182,90.308l2.67,7.141h-1.63l-0.54-1.59h-2.671l-0.56,1.59h-1.58l2.7-7.141H74.182z M74.271,94.688
			l-0.9-2.62h-0.02l-0.931,2.62H74.271z"/>
	</g>
	<g>
		<g>
			<g class="st10">
				<rect x="116.883" y="79.101" class="st3" width="30.207" height="30.207"/>
			</g>
			<g>
				<path class="st1" d="M126.575,97.449l-2.31-7.141h1.609l1.591,5.021h0.02l1.61-5.021h1.62l-2.37,7.141H126.575z"/>
				<path class="st1" d="M133.536,90.308l1.67,4.91h0.021l1.58-4.91h2.21v7.141h-1.47v-5.061h-0.021l-1.75,5.061h-1.21l-1.75-5.011
					h-0.021v5.011h-1.47v-7.141H133.536z"/>
			</g>
		</g>
		<g>
			<g class="st10">
				<rect x="149.831" y="79.101" class="st3" width="30.207" height="30.207"/>
			</g>
			<g>
				<path class="st1" d="M159.524,97.449l-2.311-7.141h1.609l1.591,5.021h0.021l1.609-5.021h1.621l-2.371,7.141H159.524z"/>
				<path class="st1" d="M166.485,90.308l1.67,4.91h0.02l1.58-4.91h2.211v7.141h-1.471v-5.061h-0.02l-1.75,5.061h-1.211l-1.75-5.011
					h-0.02v5.011h-1.471v-7.141H166.485z"/>
			</g>
		</g>
		<g>
			<g class="st10">
				<rect x="182.78" y="79.101" class="st3" width="30.207" height="30.207"/>
			</g>
			<g>
				<path class="st1" d="M192.473,97.449l-2.311-7.141h1.61l1.59,5.021h0.021l1.61-5.021h1.62l-2.371,7.141H192.473z"/>
				<path class="st1" d="M199.434,90.308l1.67,4.91h0.02l1.581-4.91h2.21v7.141h-1.471v-5.061h-0.02l-1.75,5.061h-1.21l-1.751-5.011
					h-0.02v5.011h-1.471v-7.141H199.434z"/>
			</g>
		</g>
	</g>
	<g>
		<g class="st10">
			<rect x="116.883" y="111.518" class="st3" width="95.72" height="26.731"/>
		</g>
		<g>
			<g id="XMLID_13_">
				<path class="st1" d="M147.944,129.52c-0.129,0.349-0.316,0.578-0.56,0.687c-0.244,0.109-0.555,0.164-0.933,0.164
					c-0.378,0-0.689-0.055-0.933-0.164c-0.244-0.109-0.431-0.338-0.56-0.687l-3.362-7.764c-0.1-0.269-0.149-0.508-0.149-0.717
					c0-0.209,0.035-0.383,0.105-0.523c0.07-0.139,0.164-0.251,0.284-0.336c0.119-0.084,0.254-0.144,0.403-0.179
					c0.149-0.035,0.299-0.052,0.448-0.052c0.328,0,0.59,0.087,0.784,0.261c0.194,0.174,0.346,0.446,0.455,0.814l2.556,6.6h0.03
					l2.645-6.6c0.219-0.717,0.602-1.075,1.15-1.075c0.149,0,0.299,0.018,0.448,0.052c0.149,0.035,0.284,0.095,0.403,0.179
					c0.119,0.085,0.214,0.197,0.284,0.336c0.07,0.14,0.105,0.314,0.105,0.523c0,0.209-0.05,0.448-0.149,0.717L147.944,129.52z"/>
			</g>
			<g id="XMLID_10_">
				<path class="st5" d="M153.4,126.683c0,0.578,0.177,1.053,0.53,1.426c0.353,0.373,0.849,0.56,1.486,0.56
					c0.408,0,0.729-0.055,0.963-0.164c0.234-0.109,0.428-0.231,0.582-0.366c0.154-0.134,0.301-0.259,0.44-0.373
					c0.139-0.114,0.319-0.172,0.538-0.172c0.259,0,0.473,0.092,0.642,0.276c0.169,0.184,0.254,0.376,0.254,0.575
					c0,0.328-0.117,0.615-0.351,0.859c-0.234,0.244-0.523,0.443-0.866,0.597c-0.343,0.154-0.714,0.271-1.112,0.351
					c-0.398,0.08-0.762,0.119-1.09,0.119c-0.767,0-1.414-0.117-1.941-0.351c-0.528-0.234-0.961-0.54-1.299-0.918
					c-0.338-0.378-0.582-0.801-0.732-1.269c-0.149-0.468-0.224-0.941-0.224-1.419c0-0.637,0.095-1.214,0.284-1.732
					c0.189-0.517,0.46-0.963,0.814-1.336c0.353-0.373,0.784-0.662,1.292-0.866c0.508-0.204,1.085-0.306,1.732-0.306
					c0.627,0,1.185,0.102,1.672,0.306c0.488,0.204,0.901,0.473,1.239,0.806c0.338,0.334,0.595,0.714,0.769,1.142
					c0.174,0.428,0.261,0.866,0.261,1.314c0,0.378-0.067,0.63-0.202,0.754c-0.134,0.125-0.386,0.187-0.754,0.187H153.4z
					 M157.222,125.429c-0.06-0.508-0.259-0.923-0.597-1.247c-0.338-0.323-0.752-0.485-1.239-0.485c-0.547,0-0.985,0.154-1.314,0.463
					c-0.328,0.309-0.552,0.732-0.672,1.269H157.222z"/>
			</g>
			<g id="XMLID_7_">
				<path class="st11" d="M160.825,126.683c-0.368,0-0.62-0.062-0.754-0.187c-0.134-0.124-0.202-0.376-0.202-0.754
					c0-0.448,0.087-0.886,0.261-1.314c0.174-0.428,0.431-0.809,0.769-1.142c0.338-0.333,0.752-0.602,1.239-0.806
					c0.488-0.204,1.045-0.306,1.672-0.306c0.647,0,1.224,0.102,1.732,0.306c0.508,0.204,0.938,0.493,1.292,0.866
					c0.353,0.373,0.625,0.819,0.814,1.336c0.189,0.518,0.284,1.095,0.284,1.732c0,0.478-0.075,0.951-0.224,1.419
					c-0.149,0.468-0.393,0.891-0.732,1.269c-0.338,0.378-0.771,0.685-1.299,0.918c-0.528,0.234-1.174,0.351-1.941,0.351
					c-0.329,0-0.692-0.04-1.09-0.119c-0.398-0.079-0.769-0.196-1.112-0.351c-0.343-0.154-0.632-0.353-0.866-0.597
					c-0.234-0.244-0.351-0.53-0.351-0.859c0-0.199,0.085-0.391,0.254-0.575c0.169-0.184,0.383-0.276,0.642-0.276
					c0.219,0,0.398,0.057,0.538,0.172c0.14,0.115,0.286,0.239,0.44,0.373c0.154,0.134,0.349,0.256,0.582,0.366
					c0.234,0.11,0.555,0.164,0.963,0.164c0.637,0,1.132-0.187,1.486-0.56c0.353-0.373,0.53-0.848,0.53-1.426H160.825z
					 M165.753,125.429c-0.119-0.538-0.343-0.96-0.672-1.269c-0.329-0.308-0.766-0.463-1.314-0.463c-0.488,0-0.901,0.162-1.239,0.485
					c-0.338,0.324-0.538,0.739-0.597,1.247H165.753z"/>
			</g>
			<g id="XMLID_5_">
				<path class="st1" d="M168.966,123.189c0-0.328,0.095-0.58,0.284-0.754c0.189-0.174,0.423-0.261,0.702-0.261
					c0.279,0,0.513,0.087,0.702,0.261c0.189,0.174,0.284,0.426,0.284,0.754v0.836h0.03c0.06-0.229,0.139-0.453,0.239-0.672
					c0.099-0.219,0.221-0.415,0.366-0.59c0.144-0.174,0.314-0.316,0.508-0.426c0.194-0.109,0.426-0.164,0.694-0.164
					c0.348,0,0.635,0.1,0.859,0.299c0.224,0.199,0.336,0.453,0.336,0.762c0,0.199-0.03,0.368-0.09,0.508
					c-0.06,0.14-0.142,0.252-0.246,0.336c-0.105,0.085-0.222,0.147-0.351,0.187c-0.129,0.04-0.259,0.06-0.388,0.06h-0.388
					c-0.438,0-0.774,0.177-1.008,0.53c-0.234,0.354-0.351,0.983-0.351,1.889v2.538c0,0.289-0.075,0.543-0.224,0.762
					c-0.149,0.219-0.438,0.328-0.866,0.328c-0.428,0-0.717-0.11-0.866-0.328c-0.149-0.219-0.224-0.473-0.224-0.762V123.189z"/>
			</g>
			<g id="XMLID_3_">
				<path class="st1" d="M175.789,123.801h-0.373c-0.309,0-0.53-0.06-0.664-0.179c-0.134-0.119-0.202-0.299-0.202-0.538
					c0-0.239,0.067-0.418,0.202-0.538s0.356-0.179,0.664-0.179h0.373v-1.329c0-0.358,0.099-0.629,0.299-0.814
					c0.199-0.184,0.463-0.276,0.791-0.276c0.328,0,0.592,0.092,0.791,0.276c0.199,0.184,0.299,0.455,0.299,0.814v1.329h0.657
					c0.319,0,0.562,0.055,0.732,0.164c0.169,0.11,0.254,0.294,0.254,0.552c0,0.259-0.085,0.443-0.254,0.552
					c-0.169,0.11-0.413,0.164-0.732,0.164h-0.657v4.36c0,0.339,0.189,0.508,0.567,0.508h0.314c0.239,0,0.426,0.065,0.56,0.194
					c0.134,0.13,0.202,0.309,0.202,0.538c0,0.647-0.528,0.971-1.583,0.971c-0.797,0-1.369-0.162-1.717-0.485
					c-0.349-0.323-0.523-0.809-0.523-1.456V123.801z"/>
			</g>
			<g id="XMLID_1_">
				<path class="st1" d="M188.038,129.281c0,0.329-0.077,0.592-0.231,0.791c-0.154,0.199-0.406,0.299-0.754,0.299
					c-0.349,0-0.6-0.1-0.754-0.299c-0.154-0.199-0.231-0.463-0.231-0.791v-0.284h-0.03c-0.309,0.408-0.67,0.739-1.083,0.993
					c-0.413,0.254-0.933,0.381-1.56,0.381c-0.329,0-0.657-0.045-0.985-0.134s-0.622-0.246-0.881-0.47
					c-0.259-0.224-0.47-0.517-0.635-0.881c-0.164-0.363-0.246-0.824-0.246-1.381v-4.241c0-0.289,0.075-0.542,0.224-0.762
					c0.149-0.219,0.438-0.328,0.866-0.328c0.428,0,0.717,0.11,0.866,0.328c0.149,0.219,0.224,0.473,0.224,0.762v3.808
					c0,0.448,0.11,0.811,0.329,1.09c0.219,0.279,0.567,0.418,1.045,0.418c0.189,0,0.383-0.037,0.582-0.112
					c0.199-0.075,0.378-0.187,0.538-0.336c0.159-0.149,0.289-0.331,0.388-0.545c0.099-0.214,0.149-0.455,0.149-0.724v-3.599
					c0-0.289,0.075-0.542,0.224-0.762c0.149-0.219,0.438-0.328,0.866-0.328c0.428,0,0.717,0.11,0.866,0.328
					c0.149,0.219,0.224,0.473,0.224,0.762V129.281z"/>
			</g>
		</g>
	</g>
</g>
</svg>